# Blender 3.4.1
# www.blender.org
mtllib StoneFloorDeco_04.mtl
o Deco_04
v 0.314619 0.000168 0.006427
v -0.148610 0.000168 0.244371
v -0.322266 0.138372 -0.093701
v -0.322266 0.000168 -0.093701
v -0.148610 0.096447 0.244371
v -0.251432 0.138372 0.044198
v 0.100479 0.138372 0.116423
v -0.000889 0.000168 -0.258781
v 0.292530 0.000168 -0.036576
v 0.314619 0.035315 0.006427
v -0.082180 0.138372 -0.217025
v 0.254001 0.138372 0.037564
vn -0.0467 0.9726 0.2277
vn -0.0000 -1.0000 -0.0000
vn 0.8895 -0.0000 -0.4569
vn -0.0000 1.0000 -0.0000
vn -0.8895 -0.0000 0.4569
vn 0.5186 0.5119 -0.6848
vn 0.4569 -0.0000 0.8895
vn -0.4569 -0.0000 -0.8895
vt 0.422033 0.000000
vt 0.728962 0.504665
vt 0.846536 0.000000
vt 0.422033 0.578273
vt 0.575498 0.926698
vt 0.846536 0.578273
vt 0.422033 0.004151
vt 0.422033 0.504665
vt 0.000000 0.979465
vt 0.000000 0.578273
vt 0.575498 0.504665
vt 0.153464 0.979465
vt 0.846536 0.000000
vt 0.468587 0.926698
vt 0.953446 0.578273
vt 0.593462 0.003858
vt 0.422033 0.676812
vt 0.844923 0.313537
vt 1.000000 0.267323
vt 0.000000 0.177081
vt 0.728962 0.926698
vt 0.153464 0.578273
vt 0.368351 0.000000
vt 0.728962 0.558347
vt 0.689934 0.504665
vt 0.885563 0.000000
vt 0.424555 0.303045
vt 0.575498 0.926698
vt 0.000000 0.679753
vt 0.846536 0.504665
vt 0.575498 0.504665
vt 1.000000 0.075673
s 0
usemtl Material.015
f 6/16/1 5/13/1 7/18/1
f 9/23/2 1/1/2 2/4/2 4/10/2 8/20/2
f 9/24/3 10/25/3 1/2/3
f 12/30/4 11/27/4 3/7/4 6/16/4 7/18/4
f 2/5/5 5/14/5 6/17/5 3/8/5 4/11/5
f 10/25/6 9/24/6 8/21/6 11/28/6 12/31/6
f 1/3/7 10/26/7 12/32/7 7/19/7 5/15/7 2/6/7
f 4/12/8 3/9/8 11/29/8 8/22/8
