# Blender 3.4.1
# www.blender.org
mtllib StoneFloor_01.mtl
o Floor_01
v 5.306791 -0.168690 5.122312
v 5.165840 -0.168690 5.263263
v 5.165840 -0.168688 -5.348464
v 5.200356 -0.168688 -5.163426
v -5.304936 -0.168688 -5.207513
v -5.163984 -0.168688 -5.348464
v -5.304936 -0.168690 5.122312
v -5.163984 -0.168690 5.263263
v -5.119898 -0.639144 5.078225
v -5.119898 -0.633726 5.156828
v -5.198501 -0.633726 5.078225
v -5.163984 0.072248 5.263263
v -5.119898 0.077666 5.078225
v -5.198501 0.072248 5.078225
v -5.119898 -0.639142 -5.163426
v -5.198501 -0.633724 -5.163426
v -5.119898 -0.633724 -5.242029
v -5.119898 0.077668 -5.163426
v -5.119898 0.072250 -5.242029
v -5.304936 0.072250 -5.207513
v 5.121753 -0.639144 5.078225
v 5.200356 -0.633726 5.078225
v 5.121753 -0.633726 5.156828
v 5.121753 0.077666 5.078225
v 5.121753 0.072248 5.156828
v 5.306791 0.072248 5.122312
v 5.121753 -0.639142 -5.163426
v 5.121753 -0.633724 -5.242029
v 5.200356 -0.633724 -5.163426
v 5.121753 0.077668 -5.163426
v 5.200356 0.072250 -5.163426
v 5.165840 0.072250 -5.348464
v -5.119898 -0.168690 5.156828
v -5.198501 -0.168690 5.078225
v -5.119898 -0.168688 -5.242029
v -5.198501 -0.168688 -5.163426
v 5.121753 -0.168690 5.156828
v 5.200356 -0.168690 5.078225
v 5.306791 -0.168688 -5.207513
v 5.121753 -0.168688 -5.242029
v -5.304936 0.072248 5.122312
v -5.119898 0.072248 5.156828
v -5.163984 0.072250 -5.348464
v -5.198501 0.072250 -5.163426
v 5.165840 0.072248 5.263263
v 5.200356 0.072248 5.078225
v 5.306791 0.072250 -5.207513
v 5.121753 0.072250 -5.242029
vn -0.0000 -0.0000 1.0000
vn 1.0000 -0.0000 -0.0000
vn 0.7071 -0.0000 0.7071
vn -0.0000 1.0000 -0.0000
vn -1.0000 -0.0000 -0.0000
vn -0.0000 -0.0000 -1.0000
vn -0.0686 -0.9953 0.0686
vn -0.0686 0.9953 0.0686
vn -0.0686 -0.9953 -0.0686
vn -0.0686 0.9953 -0.0686
vn 0.0686 -0.9953 0.0686
vn 0.0686 0.9953 0.0686
vn 0.0686 -0.9953 -0.0686
vn 0.0686 0.9953 -0.0686
vn -0.0688 -0.9976 -0.0000
vn -0.7071 -0.0000 0.7071
vn -0.0688 0.9976 -0.0000
vn -0.7071 -0.0000 -0.7071
vn -0.0000 -0.9976 -0.0688
vn -0.0000 0.9976 -0.0688
vn 0.7071 -0.0000 -0.7071
vn 0.0688 -0.9976 -0.0000
vn 0.0688 0.9976 -0.0000
vn -0.0000 -0.9976 0.0688
vn -0.0000 0.9976 0.0688
vn -0.0000 -1.0000 -0.0000
vt 0.531475 0.815191
vt 0.482156 0.488647
vt 1.000000 0.681872
vt 0.531475 0.824370
vt 0.488647 0.495138
vt 0.542569 0.824370
vt 0.562843 0.500258
vt 0.000000 0.495138
vt 0.553664 0.500258
vt 0.488647 0.817439
vt 0.008521 0.493548
vt 1.000000 0.000000
vt 0.542569 0.478845
vt 0.006491 0.977294
vt 0.542569 0.488024
vt 0.000000 0.970803
vt 1.000000 0.336347
vt 0.482156 0.977294
vt 1.000000 0.345525
vt 0.488647 0.970803
vt 0.963872 0.475225
vt 0.967492 0.475225
vt 0.988905 0.338594
vt 0.963872 0.478845
vt 0.988905 0.333476
vt 0.988905 0.345525
vt 0.488647 0.006491
vt 0.480126 0.008521
vt 0.480126 0.004901
vt 0.492267 0.475225
vt 0.492267 0.478845
vt 0.531475 0.817439
vt 0.988905 0.000000
vt 0.488647 0.475225
vt 0.531475 0.812320
vt 0.008521 0.008521
vt 0.004901 0.008521
vt 0.988905 0.000000
vt 0.553664 0.478845
vt 0.006491 0.000000
vt 0.963872 0.003620
vt 0.963872 0.000000
vt 0.510061 0.483963
vt 0.510061 0.478845
vt 0.967492 0.003620
vt 0.988905 0.672070
vt 0.480126 0.480126
vt 0.483746 0.480126
vt 0.542569 0.815191
vt 0.482156 0.488647
vt 0.492267 0.003620
vt 0.488647 0.003620
vt 0.558783 0.478845
vt 0.531475 0.478845
vt 0.553664 0.478845
vt 0.492267 0.000000
vt 0.510061 0.817439
vt 0.008521 0.480126
vt 0.008521 0.483746
vt 0.553664 0.824370
vt 0.562843 0.511353
vt 0.000000 0.482156
vt 0.967491 0.338594
vt 0.483746 0.968773
vt 0.967491 0.333476
vt 0.480126 0.972393
vt 0.510061 0.812320
vt 0.004901 0.968773
vt 0.510061 0.817439
vt 0.967491 0.000000
vt 0.008521 0.972393
vt 0.488647 0.478845
vt 0.967491 0.672070
vt 0.483746 0.497168
vt 0.488647 0.483963
vt 0.480126 0.493548
vt 0.531475 0.478845
vt 0.553664 0.500258
vt 0.006491 0.488647
vt 0.558783 0.500258
vt 0.510061 0.478845
vt 0.004901 0.497168
vt 0.988905 0.336347
vt 0.482156 0.000000
vt 0.483746 0.008521
vt 0.553664 0.488024
vt 0.000000 0.006491
vt 0.008521 0.004901
vt 0.988905 0.681872
vt 0.542569 0.824370
vt 0.488647 0.482156
vt 0.480126 0.483746
vt 0.542569 0.478845
vt 0.553664 0.511353
vt 0.006491 0.488647
vt 0.004901 0.480126
s 0
usemtl Material.012
f 2/3/1 45/89/1 12/26/1 8/19/1
f 39/77/2 47/93/2 26/49/2 1/1/2
f 45/90/3 2/4/3 1/1/3 26/49/3
f 30/58/4 18/36/4 13/28/4 24/47/4
f 7/17/5 41/83/5 20/38/5 5/12/5
f 6/15/6 43/86/6 32/60/6 3/6/6
f 9/21/7 10/22/7 11/24/7
f 42/85/8 13/28/8 14/29/8
f 15/30/9 16/31/9 17/34/9
f 18/36/10 19/37/10 44/88/10
f 21/41/11 22/42/11 23/45/11
f 24/47/12 25/48/12 46/92/12
f 27/51/13 28/52/13 29/56/13
f 30/58/14 31/59/14 48/96/14
f 15/30/15 9/21/15 11/24/15 16/31/15
f 8/19/16 12/26/16 41/83/16 7/17/16
f 13/28/17 18/36/17 44/88/17 14/29/17
f 35/67/18 17/35/18 16/32/18 36/69/18
f 27/51/19 15/30/19 17/34/19 28/52/19
f 18/36/20 30/58/20 48/96/20 19/37/20
f 4/9/21 29/55/21 28/53/21 40/80/21
f 21/41/22 27/51/22 29/56/22 22/42/22
f 30/58/23 24/47/23 46/92/23 31/59/23
f 37/72/3 23/44/3 22/43/3 38/75/3
f 9/21/24 21/41/24 23/45/24 10/22/24
f 24/47/25 13/28/25 42/85/25 25/48/25
f 15/30/26 27/51/26 21/41/26 9/21/26
f 47/94/21 39/78/21 3/7/21 32/61/21
f 43/86/18 6/15/18 5/13/18 20/39/18
f 10/23/16 33/63/16 34/65/16 11/25/16
f 17/35/6 35/67/6 40/81/6 28/54/6
f 11/25/5 34/65/5 36/70/5 16/33/5
f 29/57/2 4/10/2 38/75/2 22/43/2
f 23/46/1 37/73/1 33/63/1 10/23/1
f 8/20/26 7/18/26 34/66/26 33/64/26
f 5/14/26 6/16/26 35/68/26 36/71/26
f 1/2/26 2/5/26 37/74/26 38/76/26
f 3/8/26 39/79/26 4/11/26 40/82/26
f 41/84/4 12/27/4 42/85/4 14/29/4
f 43/87/4 20/40/4 44/88/4 19/37/4
f 45/91/4 26/50/4 46/92/4 25/48/4
f 47/95/4 32/62/4 48/96/4 31/59/4
f 20/40/4 41/84/4 14/29/4 44/88/4
f 32/62/4 43/87/4 19/37/4 48/96/4
f 26/50/4 47/95/4 31/59/4 46/92/4
f 12/27/4 45/91/4 25/48/4 42/85/4
f 6/16/26 3/8/26 40/82/26 35/68/26
f 7/18/26 5/14/26 36/71/26 34/66/26
f 39/79/26 1/2/26 38/76/26 4/11/26
f 2/5/26 8/20/26 33/64/26 37/74/26
