# Blender 3.4.1
# www.blender.org
mtllib Stone_03.mtl
o Stone_03
v 0.213190 1.032327 -0.205249
v 0.202944 1.032327 -0.215495
v 0.202944 1.055749 -0.205249
v 0.202944 -0.005053 -0.205249
v 0.202944 0.018369 -0.215495
v 0.213190 0.018369 -0.205249
v 0.213190 0.018369 0.238300
v 0.202944 0.018369 0.248546
v 0.202944 -0.005053 0.238300
v -0.240605 1.032327 -0.215495
v -0.250851 1.032327 -0.205249
v -0.240605 1.055749 -0.205249
v -0.250851 0.018369 -0.205249
v -0.240605 0.018369 -0.215495
v -0.240605 -0.005053 -0.205249
v -0.250851 1.032327 0.238301
v -0.240605 1.032327 0.248546
v -0.240605 1.055749 0.238301
v -0.240605 -0.005053 0.238300
v -0.240605 0.018369 0.248546
v -0.250851 0.018369 0.238300
v 0.213190 0.720271 0.238300
v 0.203833 0.756716 0.239390
v 0.202944 0.719632 0.248546
v -0.064041 1.032327 0.248546
v -0.039365 1.041552 0.239390
v -0.065527 1.055749 0.238301
v 0.213190 1.032327 -0.003670
v 0.202944 1.055749 -0.005515
v 0.203833 1.041552 0.018526
vn 0.5831 0.4978 0.6420
vn -0.0000 -0.0000 1.0000
vn -0.0000 1.0000 -0.0000
vn -0.0000 -1.0000 -0.0000
vn -1.0000 -0.0000 -0.0000
vn -0.0000 -0.0000 -1.0000
vn 0.6755 0.2955 -0.6755
vn 0.6755 -0.2955 -0.6755
vn 0.6755 -0.2955 0.6755
vn -0.6755 0.2955 -0.6755
vn -0.6755 -0.2955 -0.6755
vn -0.6755 0.2955 0.6755
vn -0.6755 -0.2955 0.6755
vn 0.6934 0.1570 0.7032
vn 0.1817 0.4038 0.8966
vn 0.8903 0.4058 0.2067
vn -0.9162 -0.4008 -0.0000
vn -0.0000 -0.4008 -0.9162
vn 0.7071 -0.0000 -0.7071
vn -0.7071 -0.0000 0.7071
vn 0.7071 -0.0000 0.7071
vn -0.7071 -0.0000 -0.7071
vn -0.0000 0.4008 0.9162
vn -0.0000 -0.4008 0.9162
vn -0.9162 0.4008 -0.0000
vn -0.0000 0.4008 -0.9162
vn 0.9162 -0.4008 -0.0000
vn 0.9162 0.4008 -0.0000
vn 0.4108 0.7917 0.4523
vn 0.2638 0.2252 0.9379
vn 0.9274 0.2293 0.2957
vn 1.0000 -0.0000 -0.0000
vt 0.503131 0.550604
vt 0.754757 0.013328
vt 0.508687 0.549466
vt 0.743645 0.804140
vt 0.508687 0.563035
vt 0.755353 0.000000
vt 0.492020 0.575218
vt 0.508687 0.000000
vt 0.755353 0.569989
vt 0.508687 0.011294
vt 0.503131 0.012432
vt 0.754757 0.558147
vt 0.993880 0.561622
vt 1.000000 0.560960
vt 0.005143 0.566508
vt 0.492020 0.815732
vt 0.004465 0.578353
vt 0.994476 0.573464
vt 0.251506 0.562518
vt 0.749201 0.549466
vt 0.754757 0.550604
vt 0.257062 0.562518
vt 0.503131 0.804140
vt 0.257062 0.575218
vt 0.749201 0.563035
vt 0.257062 0.012701
vt 0.749201 0.011294
vt 0.251506 0.012701
vt 0.251506 0.575218
vt 0.257062 0.000000
vt 0.749201 0.000000
vt 0.497575 0.562518
vt 0.503131 0.562518
vt 0.251506 0.021618
vt 0.503131 0.563626
vt 0.251147 0.008289
vt 0.497575 0.575218
vt 0.251506 0.815732
vt 0.497576 0.000000
vt 0.243909 0.578353
vt 0.503131 0.012701
vt 0.244588 0.566508
vt 0.497576 0.012701
vt 0.003882 0.188571
vt 0.993880 0.184477
vt 0.009237 0.169065
vt 0.995012 0.164224
vt 1.000000 0.184157
vt 0.009928 0.189657
vt 0.156190 0.021618
vt 0.612253 0.563035
vt 0.142468 0.015997
vt 0.156633 0.008289
vt 0.598067 0.563626
vt 0.863431 0.014907
vt 0.863033 0.001565
vt 0.743645 0.695834
vt 0.000000 0.000000
vt 0.744127 0.682798
vt 0.875942 0.009446
s 0
usemtl Material.010
f 26/52/1 23/46/1 30/58/1
f 8/15/2 24/49/2 25/50/2 17/34/2 20/42/2
f 3/4/3 12/23/3 18/35/3 27/54/3 29/57/3
f 15/29/4 4/7/4 9/16/4 19/38/4
f 21/43/5 16/32/5 11/22/5 13/26/5
f 14/27/6 10/20/6 2/3/6 5/10/6
f 1/1/7 2/3/7 3/5/7
f 4/8/8 5/10/8 6/11/8
f 7/13/9 8/14/9 9/18/9
f 10/20/10 11/21/10 12/25/10
f 13/26/11 14/28/11 15/30/11
f 16/32/12 17/33/12 18/37/12
f 19/39/13 20/41/13 21/43/13
f 22/44/14 23/46/14 24/49/14
f 25/50/15 26/52/15 27/53/15
f 28/55/16 29/56/16 30/60/16
f 15/30/17 19/39/17 21/43/17 13/26/17
f 4/8/18 15/31/18 14/27/18 5/10/18
f 1/1/19 6/11/19 5/10/19 2/3/19
f 20/41/20 17/33/20 16/32/20 21/43/20
f 24/48/21 8/14/21 7/13/21 22/45/21
f 10/19/22 14/28/22 13/26/22 11/22/22
f 27/53/23 18/36/23 17/34/23 25/50/23
f 19/40/24 9/17/24 8/15/24 20/42/24
f 18/37/25 12/24/25 11/22/25 16/32/25
f 12/25/26 3/5/26 2/3/26 10/20/26
f 9/18/27 4/9/27 6/12/27 7/13/27
f 3/6/28 29/56/28 28/55/28 1/2/28
f 26/51/29 30/59/29 29/57/29 27/54/29
f 23/46/30 26/52/30 25/50/30 24/49/30
f 30/60/31 23/47/31 22/45/31 28/55/31
f 6/12/32 1/2/32 28/55/32 22/45/32 7/13/32
