# Blender 3.4.1
# www.blender.org
mtllib BarTable_03.mtl
o Cube.208
v -0.659949 1.152361 -0.102014
v -0.659949 1.277393 -0.102014
v -0.659949 1.152361 -0.166249
v -0.659949 1.277393 -0.166249
v 0.641686 1.152361 -0.102014
v 0.641686 1.277393 -0.102014
v 0.641686 1.152361 -0.166249
v 0.641686 1.277393 -0.166249
v -0.659949 1.152361 0.164203
v -0.659949 1.277393 0.164203
v -0.659949 1.152361 0.099968
v -0.659949 1.277393 0.099968
v 0.641686 1.152361 0.164203
v 0.641686 1.277393 0.164203
v 0.641686 1.152361 0.099968
v 0.641686 1.277393 0.099968
v -0.659949 0.068915 -0.102014
v -0.659949 0.193947 -0.102014
v -0.659949 0.068915 -0.166249
v -0.659949 0.193947 -0.166249
v 0.641686 0.068915 -0.102014
v 0.641686 0.193947 -0.102014
v 0.641686 0.068915 -0.166249
v 0.641686 0.193947 -0.166249
v -0.659949 0.068915 0.164203
v -0.659949 0.193947 0.164203
v -0.659949 0.068915 0.099968
v -0.659949 0.193947 0.099968
v 0.641686 0.068915 0.164203
v 0.641686 0.193947 0.164203
v 0.641686 0.068915 0.099968
v 0.641686 0.193947 0.099968
v 0.482797 1.152361 -0.166249
v 0.550188 1.152361 -0.166249
v 0.550188 1.277393 -0.166249
v 0.482797 1.277393 -0.166249
v 0.550188 1.152361 -0.102014
v 0.482797 1.152361 -0.102014
v 0.482797 1.277393 -0.102014
v 0.550188 1.277393 -0.102014
v 0.482797 1.152361 0.099968
v 0.550188 1.152361 0.099968
v 0.550188 1.277393 0.099968
v 0.482797 1.277393 0.099968
v 0.550188 1.152361 0.164203
v 0.482797 1.152361 0.164203
v 0.482797 1.277393 0.164203
v 0.550188 1.277393 0.164203
v 0.482797 0.068915 -0.166249
v 0.550188 0.068915 -0.166249
v 0.550188 0.193947 -0.166249
v 0.482797 0.193947 -0.166249
v 0.550188 0.068915 -0.102014
v 0.482797 0.068915 -0.102014
v 0.482797 0.193947 -0.102014
v 0.550188 0.193947 -0.102014
v 0.482797 0.068915 0.099968
v 0.550188 0.068915 0.099968
v 0.550188 0.193947 0.099968
v 0.482797 0.193947 0.099968
v 0.550188 0.068915 0.164203
v 0.482797 0.068915 0.164203
v 0.482797 0.193947 0.164203
v 0.550188 0.193947 0.164203
v -0.443903 0.193947 0.164203
v -0.531835 0.193947 0.164203
v -0.531835 0.068915 0.164203
v -0.443903 0.068915 0.164203
v -0.531835 0.193947 0.099968
v -0.443903 0.193947 0.099968
v -0.443903 0.068915 0.099968
v -0.531835 0.068915 0.099968
v -0.531835 0.193947 -0.102014
v -0.443903 0.193947 -0.102014
v -0.443903 0.068915 -0.102014
v -0.531835 0.068915 -0.102014
v -0.531835 0.193947 -0.166249
v -0.443903 0.193947 -0.166249
v -0.443903 0.068915 -0.166249
v -0.531835 0.068915 -0.166249
v -0.531835 1.277393 0.164203
v -0.443903 1.277393 0.164203
v -0.531835 1.152361 0.164203
v -0.443903 1.152361 0.164203
v -0.443903 1.277393 0.099968
v -0.531835 1.277393 0.099968
v -0.443903 1.152361 0.099968
v -0.531835 1.152361 0.099968
v -0.531835 1.277393 -0.102014
v -0.443903 1.277393 -0.102014
v -0.443903 1.152361 -0.102014
v -0.531835 1.152361 -0.102014
v -0.531835 1.277393 -0.166249
v -0.443903 1.277393 -0.166249
v -0.531835 1.152361 -0.166249
v -0.443903 1.152361 -0.166249
v 0.193545 0.068915 0.099968
v 0.254778 0.068915 0.099968
v 0.254778 0.193947 0.099968
v 0.193545 0.193947 0.099968
v 0.254778 0.193947 0.164203
v 0.193545 0.193947 0.164203
v 0.193545 0.068915 0.164203
v 0.254778 0.068915 0.164203
v 0.193545 0.068915 -0.166249
v 0.254778 0.068915 -0.166249
v 0.254778 0.193947 -0.166249
v 0.193545 0.193947 -0.166249
v 0.254778 0.193947 -0.102014
v 0.193545 0.193947 -0.102014
v 0.193545 0.068915 -0.102014
v 0.254778 0.068915 -0.102014
v 0.193545 1.152361 -0.166249
v 0.254778 1.152361 -0.166249
v 0.193545 1.152361 -0.102014
v 0.254778 1.152361 -0.102014
v 0.193545 1.277393 -0.102014
v 0.254778 1.277393 -0.102014
v 0.254778 1.277393 -0.166249
v 0.193545 1.277393 -0.166249
v 0.254778 1.152361 0.099968
v 0.193545 1.152361 0.099968
v 0.193545 1.152361 0.164203
v 0.254778 1.152361 0.164203
v 0.193545 1.277393 0.164203
v 0.254778 1.277393 0.164203
v 0.254778 1.277393 0.099968
v 0.193545 1.277393 0.099968
v 0.254778 0.903671 -0.102014
v 0.254778 0.991665 -0.102014
v 0.193545 0.991665 -0.166249
v 0.193545 0.903671 -0.166249
v 0.193545 0.991665 -0.102014
v 0.193545 0.903671 -0.102014
v 0.254778 0.903671 -0.166249
v 0.254778 0.991665 -0.166249
v -0.531835 0.365485 0.099968
v -0.531835 0.453479 0.099968
v -0.443903 0.453480 0.099968
v -0.443903 0.365485 0.099968
v -0.531835 0.365485 0.164203
v -0.531835 0.453479 0.164203
v -0.443903 0.453479 0.164203
v -0.443903 0.365485 0.164203
v 0.091027 0.824740 -0.119738
v -0.408374 0.458201 0.085436
v -0.055511 0.674814 -0.056926
v -0.230392 0.546458 0.014922
v 0.135549 0.777911 -0.067837
v -0.343869 0.381639 0.131408
v -0.001106 0.615539 -0.005371
v -0.168990 0.476771 0.064401
v -0.372898 0.466904 0.139099
v 0.113389 0.845490 -0.061756
v -0.197477 0.558693 0.069770
v -0.027188 0.691268 -0.000566
v 0.114853 0.756095 -0.125815
v -0.379678 0.372627 0.076962
v -0.028587 0.598444 -0.061881
v -0.201763 0.464160 0.009128
v 0.193545 0.325557 0.164203
v 0.193545 0.405769 0.164203
v 0.193545 0.325557 0.099968
v 0.193544 0.405778 0.099972
v 0.254778 0.405769 0.099968
v 0.254778 0.325557 0.099968
v 0.254778 0.405769 0.164203
v 0.254778 0.325557 0.164203
v -0.531835 0.951479 -0.166249
v -0.531835 1.031692 -0.166249
v -0.531835 0.951479 -0.102014
v -0.531835 1.031692 -0.102014
v -0.443903 1.031692 -0.102014
v -0.443903 0.951479 -0.102014
v -0.443903 1.031692 -0.166249
v -0.443903 0.951479 -0.166249
v 0.077841 0.541043 0.115718
v -0.353247 0.918454 -0.065958
v -0.052079 0.703739 0.064511
v -0.198960 0.824397 -0.001069
v 0.126161 0.566100 0.065752
v -0.283803 0.971309 -0.109472
v 0.006842 0.739931 0.014613
v -0.132741 0.870794 -0.048534
v -0.324109 0.905321 -0.119093
v 0.097583 0.517661 0.059075
v -0.172025 0.808331 -0.055122
v -0.028446 0.683816 0.009036
v 0.108669 0.589802 0.122346
v -0.313151 0.984902 -0.055516
v -0.015787 0.760491 0.070219
v -0.159412 0.887284 0.005952
vn -1.0000 -0.0000 -0.0000
vn -0.0000 1.0000 -0.0000
vn 1.0000 -0.0000 -0.0000
vn -0.0000 -1.0000 -0.0000
vn -0.0000 -0.0000 1.0000
vn -0.0000 -0.0000 -1.0000
vn 0.3520 0.9358 -0.0202
vn 0.4332 0.0265 0.9009
vn -0.8534 0.5168 0.0684
vn 0.3189 0.0114 0.9477
vn 0.1503 -0.9882 0.0297
vn 0.8849 -0.4609 -0.0676
vn -0.3971 -0.0248 -0.9174
vn -0.3509 -0.0123 -0.9363
vn -0.7070 0.7021 0.0850
vn -0.5718 0.8136 0.1050
vn -0.4227 0.9015 0.0925
vn -0.3528 -0.0524 -0.9342
vn -0.3424 -0.0563 -0.9379
vn -0.3452 -0.0382 -0.9377
vn 0.7342 -0.6742 -0.0799
vn 0.5937 -0.7974 -0.1081
vn 0.4364 -0.8946 -0.0965
vn 0.3587 0.0500 0.9321
vn 0.3421 0.0579 0.9379
vn 0.3418 0.0442 0.9387
vn -0.1751 0.9843 -0.0200
vn -0.8814 -0.4694 -0.0532
vn 0.3375 -0.0311 -0.9408
vn 0.9092 0.4132 0.0506
vn 0.3604 -0.0316 -0.9323
vn -0.3505 0.0357 0.9359
vn -0.3409 0.0263 0.9397
vn -0.7787 -0.6245 -0.0600
vn -0.6343 -0.7721 -0.0391
vn -0.5173 -0.8550 -0.0377
vn -0.2910 0.0736 0.9539
vn -0.3277 0.1079 0.9386
vn -0.3354 0.0798 0.9387
vn 0.8069 0.5879 0.0566
vn 0.6614 0.7488 0.0442
vn 0.5330 0.8451 0.0409
vn 0.2965 -0.0695 -0.9525
vn 0.3250 -0.1080 -0.9395
vn 0.3309 -0.0864 -0.9397
vn -0.3576 -0.9338 0.0157
vt 0.375000 0.000000
vt 0.375000 1.000000
vt 0.125000 0.750000
vt 0.625000 0.000000
vt 0.625000 1.000000
vt 0.875000 0.750000
vt 0.375000 0.250000
vt 0.125000 0.500000
vt 0.625000 0.250000
vt 0.875000 0.500000
vt 0.375000 0.750000
vt 0.625000 0.750000
vt 0.375000 0.500000
vt 0.625000 0.500000
vt 0.375000 0.000000
vt 0.375000 1.000000
vt 0.125000 0.750000
vt 0.625000 0.000000
vt 0.625000 1.000000
vt 0.875000 0.750000
vt 0.375000 0.250000
vt 0.125000 0.500000
vt 0.625000 0.250000
vt 0.875000 0.500000
vt 0.375000 0.750000
vt 0.625000 0.750000
vt 0.375000 0.500000
vt 0.625000 0.500000
vt 0.375000 0.000000
vt 0.375000 1.000000
vt 0.125000 0.750000
vt 0.625000 0.000000
vt 0.625000 1.000000
vt 0.875000 0.750000
vt 0.375000 0.250000
vt 0.125000 0.500000
vt 0.625000 0.250000
vt 0.875000 0.500000
vt 0.375000 0.750000
vt 0.625000 0.750000
vt 0.375000 0.500000
vt 0.625000 0.500000
vt 0.375000 0.000000
vt 0.375000 1.000000
vt 0.125000 0.750000
vt 0.625000 0.000000
vt 0.875000 0.750000
vt 0.625000 1.000000
vt 0.375000 0.250000
vt 0.125000 0.500000
vt 0.625000 0.250000
vt 0.875000 0.500000
vt 0.375000 0.750000
vt 0.625000 0.750000
vt 0.375000 0.500000
vt 0.625000 0.500000
vt 0.344483 0.500000
vt 0.375000 0.469483
vt 0.357426 0.500000
vt 0.375000 0.482426
vt 0.642574 0.500000
vt 0.625000 0.482426
vt 0.655517 0.500000
vt 0.625000 0.469483
vt 0.357426 0.750000
vt 0.375000 0.767574
vt 0.344483 0.750000
vt 0.375000 0.780517
vt 0.625000 0.780517
vt 0.655517 0.750000
vt 0.625000 0.767574
vt 0.642574 0.750000
vt 0.344483 0.500000
vt 0.375000 0.469483
vt 0.357426 0.500000
vt 0.375000 0.482426
vt 0.625000 0.482426
vt 0.642574 0.500000
vt 0.625000 0.469483
vt 0.655517 0.500000
vt 0.375000 0.767574
vt 0.357426 0.750000
vt 0.375000 0.780517
vt 0.344483 0.750000
vt 0.655517 0.750000
vt 0.625000 0.780517
vt 0.642574 0.750000
vt 0.625000 0.767574
vt 0.344483 0.500000
vt 0.375000 0.469483
vt 0.357426 0.500000
vt 0.375000 0.482426
vt 0.642574 0.500000
vt 0.625000 0.482426
vt 0.655517 0.500000
vt 0.625000 0.469483
vt 0.357426 0.750000
vt 0.375000 0.767574
vt 0.375000 0.780517
vt 0.344483 0.750000
vt 0.625000 0.780517
vt 0.655517 0.750000
vt 0.642574 0.750000
vt 0.625000 0.767574
vt 0.344483 0.500000
vt 0.375000 0.469483
vt 0.357426 0.500000
vt 0.375000 0.482426
vt 0.642574 0.500000
vt 0.625000 0.482426
vt 0.655517 0.500000
vt 0.625000 0.469483
vt 0.357426 0.750000
vt 0.375000 0.767574
vt 0.375000 0.780517
vt 0.344483 0.750000
vt 0.625000 0.780517
vt 0.655517 0.750000
vt 0.625000 0.767574
vt 0.642574 0.750000
vt 0.625000 0.885288
vt 0.760288 0.750000
vt 0.625000 0.918297
vt 0.793297 0.750000
vt 0.375000 0.918297
vt 0.206703 0.750000
vt 0.375000 0.885288
vt 0.239712 0.750000
vt 0.625000 0.331703
vt 0.793297 0.500000
vt 0.625000 0.364712
vt 0.760288 0.500000
vt 0.375000 0.364712
vt 0.239712 0.500000
vt 0.375000 0.331703
vt 0.206703 0.500000
vt 0.625000 0.918297
vt 0.793297 0.750000
vt 0.625000 0.885288
vt 0.760288 0.750000
vt 0.239712 0.750000
vt 0.375000 0.885288
vt 0.206703 0.750000
vt 0.375000 0.918297
vt 0.625000 0.331703
vt 0.793297 0.500000
vt 0.625000 0.364712
vt 0.760288 0.500000
vt 0.239712 0.500000
vt 0.375000 0.364712
vt 0.375000 0.331703
vt 0.206703 0.500000
vt 0.793297 0.750000
vt 0.625000 0.918297
vt 0.625000 0.885288
vt 0.760288 0.750000
vt 0.375000 0.918297
vt 0.206703 0.750000
vt 0.375000 0.885288
vt 0.239712 0.750000
vt 0.625000 0.364712
vt 0.760288 0.500000
vt 0.625000 0.331703
vt 0.793297 0.500000
vt 0.375000 0.364712
vt 0.239712 0.500000
vt 0.375000 0.331703
vt 0.206703 0.500000
vt 0.625000 0.918297
vt 0.793297 0.750000
vt 0.625000 0.885288
vt 0.760288 0.750000
vt 0.375000 0.885288
vt 0.239712 0.750000
vt 0.375000 0.918297
vt 0.206703 0.750000
vt 0.625000 0.331703
vt 0.793297 0.500000
vt 0.625000 0.364712
vt 0.760288 0.500000
vt 0.375000 0.331703
vt 0.206703 0.500000
vt 0.375000 0.364712
vt 0.239712 0.500000
vt 0.375000 0.413636
vt 0.288636 0.500000
vt 0.295559 0.500000
vt 0.375000 0.420559
vt 0.625000 0.420559
vt 0.704441 0.500000
vt 0.711364 0.500000
vt 0.625000 0.413636
vt 0.625000 0.829441
vt 0.704441 0.750000
vt 0.711364 0.750000
vt 0.625000 0.836364
vt 0.375000 0.836364
vt 0.288636 0.750000
vt 0.375000 0.829441
vt 0.295559 0.750000
vt 0.288636 0.500000
vt 0.375000 0.413636
vt 0.295559 0.500000
vt 0.375000 0.420559
vt 0.704441 0.500000
vt 0.625000 0.420559
vt 0.711364 0.500000
vt 0.625000 0.413636
vt 0.704441 0.750000
vt 0.625000 0.829441
vt 0.711364 0.750000
vt 0.625000 0.836364
vt 0.375000 0.836364
vt 0.288636 0.750000
vt 0.375000 0.829441
vt 0.295559 0.750000
vt 0.375000 0.413636
vt 0.288636 0.500000
vt 0.375000 0.420559
vt 0.295559 0.500000
vt 0.375000 0.836364
vt 0.288636 0.750000
vt 0.295559 0.750000
vt 0.375000 0.829441
vt 0.625000 0.836364
vt 0.711364 0.750000
vt 0.625000 0.829441
vt 0.704441 0.750000
vt 0.704441 0.500000
vt 0.625000 0.420559
vt 0.711364 0.500000
vt 0.625000 0.413636
vt 0.295559 0.500000
vt 0.375000 0.420559
vt 0.375000 0.413636
vt 0.288636 0.500000
vt 0.375000 0.836364
vt 0.288636 0.750000
vt 0.375000 0.829441
vt 0.295559 0.750000
vt 0.711364 0.750000
vt 0.625000 0.836364
vt 0.704441 0.750000
vt 0.625000 0.829441
vt 0.625000 0.420559
vt 0.704441 0.500000
vt 0.625000 0.413636
vt 0.711364 0.500000
vt 0.511934 0.750000
vt 0.507297 0.829441
vt 0.473132 0.829441
vt 0.456057 0.750000
vt 0.454569 0.500000
vt 0.473132 0.413636
vt 0.512338 0.500000
vt 0.507297 0.413636
vt 0.473132 0.836364
vt 0.454569 0.750000
vt 0.507297 0.836364
vt 0.512338 0.750000
vt 0.511934 0.500000
vt 0.507297 0.420559
vt 0.456057 0.500000
vt 0.473132 0.420559
vt 0.525516 0.331703
vt 0.559871 0.500000
vt 0.492597 0.331703
vt 0.482629 0.500000
vt 0.492597 0.364712
vt 0.484584 0.500000
vt 0.553133 0.500000
vt 0.525516 0.364712
vt 0.559871 0.750000
vt 0.525516 0.918297
vt 0.482629 0.750000
vt 0.492597 0.918297
vt 0.492597 0.885288
vt 0.484584 0.750000
vt 0.525516 0.885288
vt 0.553133 0.750000
vt 0.460230 0.500000
vt 0.476804 0.404408
vt 0.491289 0.368000
vt 0.482567 0.500000
vt 0.465674 0.514650
vt 0.457355 0.393706
vt 0.474677 0.511499
vt 0.467778 0.380883
vt 0.518391 0.750000
vt 0.510000 0.843623
vt 0.547734 0.750000
vt 0.523105 0.878813
vt 0.526624 0.754019
vt 0.488855 0.855640
vt 0.538761 0.750204
vt 0.498717 0.867928
vt 0.490529 0.880090
vt 0.481395 0.750000
vt 0.459728 0.750000
vt 0.476478 0.844774
vt 0.474299 0.760005
vt 0.467044 0.868475
vt 0.465483 0.763340
vt 0.455345 0.856273
vt 0.510341 0.405462
vt 0.519154 0.500000
vt 0.523722 0.369529
vt 0.549116 0.500000
vt 0.490764 0.394267
vt 0.526926 0.504871
vt 0.499501 0.381539
vt 0.539193 0.501243
vt 0.653315 0.750000
vt 0.590670 0.836364
vt 0.617935 0.750000
vt 0.569747 0.836364
vt 0.653315 0.500000
vt 0.590670 0.413636
vt 0.617935 0.500000
vt 0.569747 0.413636
vt 0.569747 0.420559
vt 0.614073 0.500000
vt 0.590670 0.420559
vt 0.648293 0.500000
vt 0.614073 0.750000
vt 0.569747 0.829441
vt 0.648293 0.750000
vt 0.590670 0.829441
vt 0.427399 0.331703
vt 0.329652 0.500000
vt 0.406476 0.331703
vt 0.280558 0.500000
vt 0.329652 0.750000
vt 0.427399 0.918297
vt 0.280558 0.750000
vt 0.406476 0.918297
vt 0.305255 0.750000
vt 0.406476 0.885288
vt 0.427399 0.885288
vt 0.348823 0.750000
vt 0.305255 0.500000
vt 0.406476 0.364712
vt 0.427399 0.364712
vt 0.348824 0.500000
vt 0.589344 0.750000
vt 0.556368 0.846642
vt 0.447422 0.879288
vt 0.386165 0.750000
vt 0.536494 0.721243
vt 0.537402 0.856436
vt 0.456354 0.723219
vt 0.496710 0.867918
vt 0.566578 0.500000
vt 0.542930 0.405600
vt 0.361826 0.500000
vt 0.436015 0.373563
vt 0.504996 0.484432
vt 0.520374 0.394382
vt 0.421862 0.486115
vt 0.480896 0.383195
vt 0.451986 0.372080
vt 0.394677 0.500000
vt 0.594226 0.500000
vt 0.558986 0.404142
vt 0.459181 0.474487
vt 0.498438 0.382561
vt 0.538276 0.472398
vt 0.538477 0.393667
vt 0.539876 0.845315
vt 0.560729 0.750000
vt 0.432238 0.877568
vt 0.354593 0.750000
vt 0.519052 0.855794
vt 0.502757 0.733723
vt 0.479436 0.867176
vt 0.419552 0.735302
s 0
f 1/1/1 2/4/1 4/9/1 3/7/1
f 8/14/2 35/61/2 40/72/2 6/12/2
f 7/13/3 8/14/3 6/12/3 5/11/3
f 36/63/2 119/229/2 118/228/2 39/70/2
f 114/220/4 33/57/4 38/67/4 116/223/4
f 5/11/5 6/12/5 40/71/5 37/66/5
f 9/15/1 10/18/1 12/23/1 11/21/1
f 16/28/2 43/78/2 48/87/2 14/26/2
f 15/27/3 16/28/3 14/26/3 13/25/3
f 56/103/3 51/93/3 34/59/3 37/65/3
f 11/21/6 12/23/6 86/163/6 88/167/6
f 13/25/5 14/26/5 48/88/5 45/81/5
f 17/29/1 18/32/1 20/37/1 19/35/1
f 24/42/2 51/93/2 56/103/2 22/40/2
f 23/41/3 24/42/3 22/40/3 21/39/3
f 76/144/5 73/137/5 18/33/5 17/30/5
f 19/35/6 20/37/6 77/145/6 80/151/6
f 21/39/5 22/40/5 56/104/5 53/98/5
f 25/43/1 26/46/1 28/51/1 27/49/1
f 32/56/2 59/109/2 64/120/2 30/54/2
f 31/55/3 32/56/3 30/54/3 29/53/3
f 87/166/4 122/236/4 123/238/4 84/160/4
f 27/49/6 28/51/6 69/129/6 72/135/6
f 29/53/5 30/54/5 64/119/5 61/114/5
f 92/175/5 89/169/5 2/5/5 1/2/5
f 34/60/6 35/62/6 8/14/6 7/13/6
f 38/68/5 39/69/5 118/227/5 116/224/5
f 34/59/4 7/13/4 5/11/4 37/65/4
f 83/157/5 81/154/5 10/19/5 9/16/5
f 42/76/6 43/77/6 16/28/6 15/27/6
f 44/80/2 127/246/2 126/243/2 47/85/2
f 42/75/4 15/27/4 13/25/4 45/82/4
f 96/183/6 94/179/6 120/232/6 113/217/6
f 50/92/6 51/94/6 24/42/6 23/41/6
f 77/146/2 20/38/2 18/34/2 73/138/2
f 50/91/4 23/41/4 21/39/4 53/97/4
f 62/115/5 63/117/5 101/193/5 104/199/5
f 58/108/6 59/110/6 32/56/6 31/55/6
f 69/130/2 28/52/2 26/47/2 66/124/2
f 58/107/4 31/55/4 29/53/4 61/113/4
f 36/63/2 39/70/2 40/72/2 35/61/2
f 55/101/5 56/104/5 37/66/5 38/68/5
f 42/76/4 41/74/4 38/68/4 37/66/4
f 35/62/6 34/60/6 33/58/6 36/64/6
f 44/80/2 47/85/2 48/87/2 43/78/2
f 63/117/5 64/119/5 45/81/5 46/83/5
f 47/86/5 46/83/5 45/81/5 48/88/5
f 43/77/3 42/76/3 37/66/3 40/71/3
f 52/95/1 55/102/1 38/67/1 33/57/1
f 50/91/4 53/97/4 54/100/4 49/89/4
f 55/101/5 54/99/5 53/98/5 56/104/5
f 51/94/6 50/92/6 49/90/6 52/96/6
f 60/111/1 63/118/1 46/84/1 41/73/1
f 58/107/4 61/113/4 62/116/4 57/105/4
f 63/117/5 62/115/5 61/114/5 64/119/5
f 59/110/6 58/108/6 57/106/6 60/112/6
f 3/7/6 4/9/6 93/177/6 95/181/6
f 3/8/4 95/182/4 92/176/4 1/3/4
f 93/178/2 4/10/2 2/6/2 89/170/2
f 115/221/5 117/225/5 90/171/5 91/173/5
f 11/22/4 88/168/4 83/158/4 9/17/4
f 86/164/2 12/24/2 10/20/2 81/153/2
f 46/83/5 47/86/5 126/244/5 124/239/5
f 87/165/6 85/161/6 128/247/6 122/235/6
f 54/99/5 55/101/5 109/210/5 112/215/5
f 19/36/4 80/152/4 76/143/4 17/31/4
f 52/95/2 107/205/2 109/209/2 55/102/2
f 106/203/4 49/89/4 54/100/4 112/216/4
f 67/125/5 66/123/5 26/48/5 25/44/5
f 27/50/4 72/136/4 67/126/4 25/45/4
f 60/111/2 99/190/2 101/194/2 63/118/2
f 98/187/4 57/105/4 62/116/4 104/200/4
f 70/131/6 71/133/6 72/135/6 69/129/6
f 66/123/5 67/125/5 68/127/5 65/121/5
f 78/147/6 79/150/6 80/151/6 77/145/6
f 86/164/2 81/153/2 82/156/2 85/162/2
f 91/173/5 92/175/5 172/336/5 173/338/5
f 94/179/6 96/183/6 95/181/6 93/177/6
f 71/134/4 68/128/4 67/126/4 72/136/4
f 84/159/5 83/157/5 142/276/5 143/277/5
f 79/149/4 75/141/4 76/143/4 80/152/4
f 92/175/4 91/173/4 87/165/4 88/167/4
f 81/154/5 83/157/5 84/159/5 82/155/5
f 175/341/7 173/337/7 190/372/7 182/355/7
f 144/279/5 141/274/5 66/123/5 65/121/5
f 73/137/5 76/144/5 75/142/5 74/139/5
f 93/178/2 89/170/2 90/172/2 94/180/2
f 89/169/1 92/175/1 88/167/1 86/163/1
f 79/149/4 105/201/4 111/214/4 75/141/4
f 121/233/4 41/73/4 46/84/4 124/240/4
f 123/237/5 125/242/5 82/155/5 84/159/5
f 128/248/2 85/162/2 82/156/2 125/241/2
f 114/219/6 119/230/6 36/64/6 33/58/6
f 120/231/2 94/180/2 90/172/2 117/226/2
f 96/184/4 113/218/4 115/222/4 91/174/4
f 121/234/6 127/245/6 44/79/6 41/74/6
f 106/204/6 107/206/6 52/96/6 49/90/6
f 79/150/6 78/147/6 108/208/6 105/202/6
f 108/207/2 78/148/2 74/140/2 110/211/2
f 111/213/5 110/212/5 74/139/5 75/142/5
f 103/197/5 102/196/5 65/121/5 68/127/5
f 98/188/6 99/189/6 60/112/6 57/106/6
f 71/133/6 70/131/6 100/192/6 97/185/6
f 100/191/2 70/132/2 65/122/2 102/195/2
f 102/196/5 103/197/5 104/199/5 101/193/5
f 110/212/5 111/213/5 112/215/5 109/210/5
f 137/265/6 140/272/6 70/131/6 69/129/6
f 128/248/2 125/241/2 126/243/2 127/246/2
f 115/221/4 116/224/4 121/234/4 122/235/4
f 122/235/6 121/234/6 165/321/6 164/320/6
f 98/187/4 104/200/4 103/198/4 97/186/4
f 106/203/4 112/216/4 111/214/4 105/201/4
f 120/231/2 117/226/2 118/228/2 119/229/2
f 125/242/5 123/237/5 124/239/5 126/244/5
f 117/225/1 115/221/1 122/235/1 128/247/1
f 124/239/5 123/237/5 162/316/5 167/326/5
f 113/217/6 114/219/6 136/264/6 131/254/6
f 119/230/6 114/219/6 113/217/6 120/232/6
f 107/206/6 106/204/6 105/202/6 108/208/6
f 99/189/6 98/188/6 97/185/6 100/192/6
f 71/134/4 97/186/4 103/198/4 68/128/4
f 51/94/6 52/96/6 33/58/6 34/60/6
f 64/120/3 59/109/3 42/75/3 45/82/3
f 59/110/6 60/112/6 41/74/6 42/76/6
f 121/233/3 124/240/3 167/325/3 165/322/3
f 161/313/1 163/317/1 100/191/1 102/195/1
f 116/224/5 115/221/5 133/257/5 130/251/5
f 114/220/3 116/223/3 130/252/3 136/263/3
f 88/167/6 87/165/6 139/269/6 138/267/6
f 83/158/1 88/168/1 138/268/1 142/275/1
f 95/181/6 96/183/6 175/342/6 170/331/6
f 92/176/1 95/182/1 170/332/1 172/335/1
f 41/74/1 44/79/1 39/69/1 38/68/1
f 44/80/2 43/78/2 40/72/2 39/70/2
f 116/224/3 118/227/3 127/245/3 121/234/3
f 118/228/2 117/226/2 128/248/2 127/246/2
f 91/173/3 90/171/3 85/161/3 87/165/3
f 90/172/2 89/170/2 86/164/2 85/162/2
f 134/260/1 132/255/1 108/207/1 110/211/1
f 135/261/3 129/249/3 109/209/3 107/205/3
f 132/256/6 135/262/6 107/206/6 108/208/6
f 115/222/1 113/218/1 131/253/1 133/258/1
f 87/166/3 84/160/3 143/278/3 139/270/3
f 141/273/1 137/266/1 69/130/1 66/124/1
f 140/271/3 144/280/3 65/122/3 70/132/3
f 154/300/8 149/290/8 134/259/8 133/257/8
f 134/259/5 129/250/5 130/251/5 133/257/5
f 129/249/3 135/261/3 136/263/3 130/252/3
f 145/281/9 154/299/9 133/258/9 131/253/9
f 135/262/6 132/256/6 131/254/6 136/264/6
f 140/272/6 137/265/6 138/267/6 139/269/6
f 137/266/1 141/273/1 142/275/1 138/268/1
f 143/277/10 144/279/10 150/292/10 153/297/10
f 141/274/5 144/279/5 143/277/5 142/276/5
f 129/250/5 134/259/5 110/212/5 109/210/5
f 144/280/11 140/271/11 158/308/11 150/291/11
f 163/318/6 166/323/6 99/189/6 100/192/6
f 149/289/12 157/306/12 132/255/12 134/260/12
f 157/305/13 145/282/13 131/254/13 132/256/13
f 140/272/14 139/269/14 146/283/14 158/307/14
f 154/299/15 145/281/15 147/285/15 156/303/15
f 156/303/16 147/285/16 148/287/16 155/301/16
f 155/301/17 148/287/17 146/284/17 153/298/17
f 145/282/18 157/305/18 159/309/18 147/286/18
f 147/286/19 159/309/19 160/311/19 148/288/19
f 148/288/20 160/311/20 158/307/20 146/283/20
f 157/306/21 149/289/21 151/293/21 159/310/21
f 159/310/22 151/293/22 152/295/22 160/312/22
f 160/312/23 152/295/23 150/291/23 158/308/23
f 149/290/24 154/300/24 156/304/24 151/294/24
f 151/294/25 156/304/25 155/302/25 152/296/25
f 152/296/26 155/302/26 153/297/26 150/292/26
f 139/270/27 143/278/27 153/298/27 146/284/27
f 169/329/6 176/343/6 78/147/6 77/145/6
f 168/328/5 161/314/5 102/196/5 101/193/5
f 166/324/3 168/327/3 101/194/3 99/190/3
f 174/339/5 171/334/5 73/137/5 74/139/5
f 171/333/1 169/330/1 77/146/1 73/138/1
f 176/344/3 174/340/3 74/140/3 78/148/3
f 96/184/3 91/174/3 173/337/3 175/341/3
f 166/323/6 163/318/6 164/320/6 165/321/6
f 177/345/28 186/363/28 163/317/28 161/313/28
f 168/327/3 166/324/3 165/322/3 167/325/3
f 161/314/5 168/328/5 167/326/5 162/316/5
f 176/343/6 169/329/6 170/331/6 175/342/6
f 169/330/1 171/333/1 172/335/1 170/332/1
f 176/343/29 175/342/29 182/356/29 185/361/29
f 171/334/5 174/339/5 173/338/5 172/336/5
f 123/238/1 122/236/1 164/319/1 162/315/1
f 181/353/30 189/370/30 162/315/30 164/319/30
f 186/364/31 181/354/31 164/320/31 163/318/31
f 189/369/32 177/346/32 161/314/32 162/316/32
f 173/338/33 174/339/33 178/347/33 190/371/33
f 186/363/34 177/345/34 179/349/34 188/367/34
f 188/367/35 179/349/35 180/351/35 187/365/35
f 187/365/36 180/351/36 178/348/36 185/362/36
f 177/346/37 189/369/37 191/373/37 179/350/37
f 179/350/38 191/373/38 192/375/38 180/352/38
f 180/352/39 192/375/39 190/371/39 178/347/39
f 189/370/40 181/353/40 183/357/40 191/374/40
f 191/374/41 183/357/41 184/359/41 192/376/41
f 192/376/42 184/359/42 182/355/42 190/372/42
f 181/354/43 186/364/43 188/368/43 183/358/43
f 183/358/44 188/368/44 187/366/44 184/360/44
f 184/360/45 187/366/45 185/361/45 182/356/45
f 174/340/46 176/344/46 185/362/46 178/348/46
