# Blender 3.4.1
# www.blender.org
mtllib Chair_01.mtl
o Cube.131
v 0.188210 0.009344 -0.176499
v 0.136589 0.551507 -0.139571
v 0.188210 0.009344 -0.229699
v 0.136589 0.551507 -0.209489
v 0.241469 0.009344 -0.176499
v 0.206584 0.551507 -0.139571
v 0.241469 0.009344 -0.229699
v 0.206584 0.551507 -0.209489
v 0.188210 0.009344 0.229040
v 0.136589 0.551507 0.205349
v 0.188210 0.009344 0.175840
v 0.136589 0.551507 0.135432
v 0.241469 0.009344 0.229040
v 0.206584 0.551507 0.205349
v 0.241469 0.009344 0.175840
v 0.206584 0.551507 0.135432
v -0.255796 0.009344 -0.176499
v -0.192139 0.551507 -0.139571
v -0.255796 0.009344 -0.229699
v -0.192139 0.551507 -0.209489
v -0.202537 0.009344 -0.176499
v -0.122144 0.551507 -0.139571
v -0.202537 0.009344 -0.229699
v -0.122144 0.551507 -0.209489
v -0.255796 0.009344 0.229040
v -0.192139 0.551507 0.205349
v -0.255796 0.009344 0.175840
v -0.192139 0.551507 0.135432
v -0.202537 0.009344 0.229040
v -0.122144 0.551507 0.205349
v -0.202537 0.009344 0.175840
v -0.122144 0.551507 0.135432
v -0.244533 0.527443 0.245781
v -0.244533 0.557672 0.283087
v -0.281839 0.557672 0.245781
v -0.244533 0.615685 0.283087
v -0.244533 0.645914 0.245781
v -0.281839 0.615685 0.245781
v -0.244533 0.527443 -0.242582
v -0.281839 0.557672 -0.242582
v -0.244533 0.557672 -0.279888
v -0.244533 0.645914 -0.242582
v -0.244533 0.615685 -0.279888
v -0.281839 0.615685 -0.242582
v 0.244454 0.527443 0.245781
v 0.281760 0.557672 0.245781
v 0.244454 0.557672 0.283087
v 0.244454 0.645914 0.245781
v 0.244454 0.615685 0.283087
v 0.281760 0.615685 0.245781
v 0.244454 0.527443 -0.242582
v 0.244454 0.557672 -0.279888
v 0.281760 0.557672 -0.242582
v 0.244454 0.645914 -0.242582
v 0.281760 0.615685 -0.242582
v 0.244454 0.615685 -0.279888
vn -0.0000 -0.0000 1.0000
vn 1.0000 -0.0000 -0.0000
vn -0.0000 1.0000 -0.0000
vn -1.0000 -0.0000 -0.0000
vn -0.0000 -0.0000 -1.0000
vn -0.9955 -0.0948 -0.0000
vn -0.0000 0.0372 -0.9993
vn 0.9979 0.0642 -0.0000
vn -0.0000 -0.0680 0.9977
vn -0.0000 -1.0000 -0.0000
vn -0.0000 -0.0743 -0.9972
vn -0.0000 0.0437 0.9990
vn -0.9932 0.1166 -0.0000
vn 0.9892 -0.1467 -0.0000
vn -0.5328 -0.6575 0.5328
vn -0.5328 0.6575 0.5328
vn -0.5328 -0.6575 -0.5328
vn -0.5328 0.6575 -0.5328
vn 0.5328 -0.6575 0.5328
vn 0.5328 0.6575 0.5328
vn 0.5328 -0.6575 -0.5328
vn 0.5328 0.6575 -0.5328
vn -0.6296 -0.7769 -0.0000
vn -0.7071 -0.0000 0.7071
vn -0.6296 0.7769 -0.0000
vn -0.7071 -0.0000 -0.7071
vn -0.0000 -0.7769 -0.6296
vn -0.0000 0.7769 -0.6296
vn 0.7071 -0.0000 -0.7071
vn 0.6296 -0.7769 -0.0000
vn 0.6296 0.7769 -0.0000
vn 0.7071 -0.0000 0.7071
vn -0.0000 -0.7769 0.6296
vn -0.0000 0.7769 0.6296
vt 0.375000 0.000000
vt 0.375000 1.000000
vt 0.125000 0.750000
vt 0.625000 0.000000
vt 0.625000 1.000000
vt 0.875000 0.750000
vt 0.375000 0.250000
vt 0.125000 0.500000
vt 0.625000 0.250000
vt 0.875000 0.500000
vt 0.375000 0.750000
vt 0.625000 0.750000
vt 0.375000 0.500000
vt 0.625000 0.500000
vt 0.375000 0.000000
vt 0.375000 1.000000
vt 0.125000 0.750000
vt 0.625000 0.000000
vt 0.625000 1.000000
vt 0.875000 0.750000
vt 0.375000 0.250000
vt 0.125000 0.500000
vt 0.625000 0.250000
vt 0.875000 0.500000
vt 0.375000 0.750000
vt 0.625000 0.750000
vt 0.375000 0.500000
vt 0.625000 0.500000
vt 0.375000 0.000000
vt 0.375000 1.000000
vt 0.125000 0.750000
vt 0.625000 0.000000
vt 0.625000 1.000000
vt 0.875000 0.750000
vt 0.375000 0.250000
vt 0.125000 0.500000
vt 0.625000 0.250000
vt 0.875000 0.500000
vt 0.375000 0.750000
vt 0.625000 0.750000
vt 0.375000 0.500000
vt 0.625000 0.500000
vt 0.375000 0.000000
vt 0.375000 1.000000
vt 0.125000 0.750000
vt 0.625000 0.000000
vt 0.625000 1.000000
vt 0.875000 0.750000
vt 0.375000 0.250000
vt 0.125000 0.500000
vt 0.625000 0.250000
vt 0.875000 0.500000
vt 0.375000 0.750000
vt 0.625000 0.750000
vt 0.375000 0.500000
vt 0.625000 0.500000
vt 0.141548 0.733434
vt 0.438790 0.983452
vt 0.438790 0.000000
vt 0.141548 0.750000
vt 0.125000 0.733434
vt 0.438790 0.016566
vt 0.561210 0.000000
vt 0.561210 0.983452
vt 0.858452 0.733434
vt 0.625000 0.016566
vt 0.625000 0.983452
vt 0.561210 0.016566
vt 0.141548 0.516566
vt 0.125000 0.516566
vt 0.438790 0.233434
vt 0.438790 0.266548
vt 0.141548 0.500000
vt 0.858452 0.516566
vt 0.625000 0.233434
vt 0.625000 0.266548
vt 0.561210 0.250000
vt 0.561210 0.266548
vt 0.561210 0.233434
vt 0.358452 0.733434
vt 0.375000 0.733434
vt 0.438790 0.733434
vt 0.438790 0.766548
vt 0.358452 0.750000
vt 0.641548 0.733434
vt 0.625000 0.766548
vt 0.561210 0.766548
vt 0.561210 0.750000
vt 0.561210 0.733434
vt 0.358452 0.516566
vt 0.358452 0.500000
vt 0.438790 0.483452
vt 0.375000 0.516566
vt 0.438790 0.516566
vt 0.625000 0.483452
vt 0.641548 0.516566
vt 0.561210 0.500000
vt 0.561210 0.516566
vt 0.561210 0.483452
s 0
f 47/83/1 49/87/1 36/64/1 34/58/1
f 53/94/2 55/98/2 50/89/2 46/82/2
f 54/96/3 42/74/3 37/65/3 48/85/3
f 35/62/4 38/68/4 44/79/4 40/71/4
f 41/72/5 43/78/5 56/99/5 52/92/5
f 1/1/6 2/4/6 4/9/6 3/7/6
f 3/7/7 4/9/7 8/14/7 7/13/7
f 7/13/8 8/14/8 6/12/8 5/11/8
f 5/11/9 6/12/9 2/5/9 1/2/9
f 3/8/10 7/13/10 5/11/10 1/3/10
f 8/14/3 4/10/3 2/6/3 6/12/3
f 9/15/6 10/18/6 12/23/6 11/21/6
f 11/21/11 12/23/11 16/28/11 15/27/11
f 15/27/8 16/28/8 14/26/8 13/25/8
f 13/25/12 14/26/12 10/19/12 9/16/12
f 11/22/10 15/27/10 13/25/10 9/17/10
f 16/28/3 12/24/3 10/20/3 14/26/3
f 17/29/13 18/32/13 20/37/13 19/35/13
f 19/35/7 20/37/7 24/42/7 23/41/7
f 23/41/14 24/42/14 22/40/14 21/39/14
f 21/39/9 22/40/9 18/33/9 17/30/9
f 19/36/10 23/41/10 21/39/10 17/31/10
f 24/42/3 20/38/3 18/34/3 22/40/3
f 25/43/13 26/46/13 28/51/13 27/49/13
f 27/49/11 28/51/11 32/56/11 31/55/11
f 31/55/14 32/56/14 30/54/14 29/53/14
f 29/53/12 30/54/12 26/47/12 25/44/12
f 27/50/10 31/55/10 29/53/10 25/45/10
f 32/56/3 28/52/3 26/48/3 30/54/3
f 33/57/15 34/60/15 35/61/15
f 36/63/16 37/66/16 38/68/16
f 39/69/17 40/70/17 41/73/17
f 42/75/18 43/77/18 44/79/18
f 45/80/19 46/81/19 47/84/19
f 48/86/20 49/87/20 50/88/20
f 51/90/21 52/91/21 53/93/21
f 54/95/22 55/97/22 56/99/22
f 39/69/23 33/57/23 35/61/23 40/70/23
f 34/59/24 36/63/24 38/68/24 35/62/24
f 37/66/25 42/75/25 44/79/25 38/68/25
f 43/78/26 41/72/26 40/71/26 44/79/26
f 51/90/27 39/69/27 41/73/27 52/91/27
f 42/76/28 54/95/28 56/99/28 43/78/28
f 55/98/29 53/94/29 52/92/29 56/99/29
f 45/80/30 51/90/30 53/94/30 46/82/30
f 54/96/31 48/85/31 50/89/31 55/98/31
f 49/87/32 47/83/32 46/82/32 50/89/32
f 33/57/33 45/80/33 47/84/33 34/60/33
f 48/86/34 37/67/34 36/64/34 49/87/34
f 39/69/10 51/90/10 45/80/10 33/57/10
