# Blender 3.4.1
# www.blender.org
mtllib Table_03.mtl
o Cube.125
v 0.479327 0.861324 -0.860233
v -0.334665 0.200453 -0.848414
v 0.479327 0.861324 -0.304353
v -0.334665 0.093008 -0.848414
v -0.355935 0.861324 -0.860233
v -0.334665 0.200453 -0.740969
v -0.355935 0.861324 -0.304353
v -0.334665 0.093008 -0.740969
v 0.479327 0.194629 -0.860233
v -0.355935 0.194629 -0.304353
v 0.479327 0.194629 -0.304353
v -0.355935 0.194629 -0.860233
v -0.355935 0.674774 -0.304353
v 0.479327 0.674774 -0.860233
v 0.479327 0.674774 -0.304353
v -0.355935 0.674774 -0.860233
v -0.258818 0.267315 -0.860233
v -0.258818 0.602087 -0.860233
v 0.382211 0.602087 -0.860233
v 0.382211 0.267315 -0.860233
v 0.479327 0.267315 -0.811674
v 0.479327 0.602087 -0.811674
v 0.479327 0.602087 -0.352911
v 0.479327 0.267315 -0.352911
v -0.355935 0.267315 -0.352911
v -0.355935 0.602087 -0.352911
v -0.355935 0.602087 -0.811674
v -0.355935 0.267315 -0.811674
v 0.382211 0.267315 -0.304353
v 0.382211 0.602087 -0.304353
v -0.258818 0.602087 -0.304353
v -0.258818 0.267315 -0.304353
v -0.258818 0.267315 -0.831462
v -0.258818 0.602087 -0.831462
v 0.382211 0.602087 -0.831462
v 0.382211 0.267315 -0.831462
v 0.421785 0.267315 -0.811674
v 0.421785 0.602087 -0.811674
v 0.421785 0.602087 -0.352911
v 0.421785 0.267315 -0.352911
v -0.298392 0.267315 -0.352911
v -0.298392 0.602087 -0.352911
v -0.298392 0.602087 -0.811674
v -0.298392 0.267315 -0.811674
v 0.382211 0.267315 -0.333124
v 0.382211 0.602087 -0.333124
v -0.258818 0.602087 -0.333124
v -0.258818 0.267315 -0.333124
v -0.227220 0.093008 -0.740969
v -0.227220 0.200453 -0.740969
v -0.227220 0.093008 -0.848414
v -0.227220 0.200453 -0.848414
v -0.298184 0.005687 -0.811933
v -0.263701 0.005687 -0.811933
v -0.263701 0.005687 -0.777450
v -0.298184 0.005687 -0.777450
v -0.334665 0.200453 -0.435234
v -0.334665 0.093008 -0.435234
v -0.334665 0.200453 -0.327789
v -0.334665 0.093008 -0.327789
v -0.227220 0.093008 -0.327789
v -0.227220 0.200453 -0.327789
v -0.227220 0.093008 -0.435234
v -0.227220 0.200453 -0.435234
v -0.298184 0.005687 -0.398753
v -0.263701 0.005687 -0.398753
v -0.263701 0.005687 -0.364270
v -0.298184 0.005687 -0.364270
v 0.352918 0.200453 -0.848414
v 0.352918 0.093008 -0.848414
v 0.352918 0.200453 -0.740969
v 0.352918 0.093008 -0.740969
v 0.460363 0.093008 -0.740969
v 0.460363 0.200453 -0.740969
v 0.460363 0.093008 -0.848414
v 0.460363 0.200453 -0.848414
v 0.389399 0.005687 -0.811933
v 0.423882 0.005687 -0.811933
v 0.423882 0.005687 -0.777450
v 0.389399 0.005687 -0.777450
v 0.352918 0.200453 -0.435234
v 0.352918 0.093008 -0.435234
v 0.352918 0.200453 -0.327789
v 0.352918 0.093008 -0.327789
v 0.460363 0.093008 -0.327789
v 0.460363 0.200453 -0.327789
v 0.460363 0.093008 -0.435234
v 0.460363 0.200453 -0.435234
v 0.389399 0.005687 -0.398753
v 0.423882 0.005687 -0.398753
v 0.423882 0.005687 -0.364270
v 0.389399 0.005687 -0.364270
v 0.479327 0.861324 0.308305
v -0.334665 0.200453 0.320124
v 0.479327 0.861324 0.865180
v -0.334665 0.093008 0.320124
v -0.355935 0.861324 0.308305
v -0.334665 0.200453 0.427569
v -0.355935 0.861324 0.865180
v -0.334665 0.093008 0.427569
v 0.479327 0.194629 0.308305
v -0.355935 0.194629 0.865180
v 0.479327 0.194629 0.865180
v -0.355935 0.194629 0.308305
v -0.355935 0.674774 0.865180
v 0.479327 0.674774 0.308305
v 0.479327 0.674774 0.865180
v -0.355935 0.674774 0.308305
v -0.258818 0.267315 0.308305
v -0.258818 0.602087 0.308305
v 0.382211 0.602087 0.308305
v 0.382211 0.267315 0.308305
v 0.479327 0.267315 0.356864
v 0.479327 0.602087 0.356864
v 0.479327 0.602087 0.816621
v 0.479327 0.267315 0.816621
v -0.355935 0.267315 0.816621
v -0.355935 0.602087 0.816621
v -0.355935 0.602087 0.356864
v -0.355935 0.267315 0.356864
v 0.382211 0.267315 0.865180
v 0.382211 0.602087 0.865180
v -0.258818 0.602087 0.865180
v -0.258818 0.267315 0.865180
v -0.258818 0.267315 0.337076
v -0.258818 0.602087 0.337076
v 0.382211 0.602087 0.337076
v 0.382211 0.267315 0.337076
v 0.421785 0.267315 0.356864
v 0.421785 0.602087 0.356864
v 0.421785 0.602087 0.816621
v 0.421785 0.267315 0.816621
v -0.298392 0.267315 0.816621
v -0.298392 0.602087 0.816621
v -0.298392 0.602087 0.356864
v -0.298392 0.267315 0.356864
v 0.382211 0.267315 0.836408
v 0.382211 0.602087 0.836408
v -0.258818 0.602087 0.836408
v -0.258818 0.267315 0.836408
v -0.227220 0.093008 0.427569
v -0.227220 0.200453 0.427569
v -0.227220 0.093008 0.320124
v -0.227220 0.200453 0.320124
v -0.298184 0.005687 0.356605
v -0.263701 0.005687 0.356605
v -0.263701 0.005687 0.391088
v -0.298184 0.005687 0.391088
v -0.334665 0.200453 0.734299
v -0.334665 0.093008 0.734299
v -0.334665 0.200453 0.841744
v -0.334665 0.093008 0.841744
v -0.227220 0.093008 0.841744
v -0.227220 0.200453 0.841744
v -0.227220 0.093008 0.734299
v -0.227220 0.200453 0.734299
v -0.298184 0.005687 0.770780
v -0.263701 0.005687 0.770780
v -0.263701 0.005687 0.805263
v -0.298184 0.005687 0.805263
v 0.352918 0.200453 0.320124
v 0.352918 0.093008 0.320124
v 0.352918 0.200453 0.427569
v 0.352918 0.093008 0.427569
v 0.460363 0.093008 0.427569
v 0.460363 0.200453 0.427569
v 0.460363 0.093008 0.320124
v 0.460363 0.200453 0.320124
v 0.389399 0.005687 0.356605
v 0.423882 0.005687 0.356605
v 0.423882 0.005687 0.391088
v 0.389399 0.005687 0.391088
v 0.352918 0.200453 0.734299
v 0.352918 0.093008 0.734299
v 0.352918 0.200453 0.841744
v 0.352918 0.093008 0.841744
v 0.460363 0.093008 0.841744
v 0.460363 0.200453 0.841744
v 0.460363 0.093008 0.734299
v 0.460363 0.200453 0.734299
v 0.389399 0.005687 0.770780
v 0.423882 0.005687 0.770780
v 0.423882 0.005687 0.805263
v 0.389399 0.005687 0.805263
v -0.355935 0.831169 -0.243659
v -0.355935 0.704930 -0.243659
v -0.355935 0.704930 0.247611
v -0.355935 0.831169 0.247611
v -0.378998 0.704930 -0.243659
v -0.383295 0.709228 -0.239361
v -0.383295 0.826871 -0.239361
v -0.378998 0.831169 -0.243659
v -0.383295 0.826871 0.243313
v -0.378998 0.831169 0.247611
v -0.378998 0.704930 0.247611
v -0.383295 0.709228 0.243313
v -0.355935 0.707778 -0.337357
v -0.355935 0.828321 -0.337357
v -0.355935 0.828321 -0.827229
v -0.355935 0.707778 -0.827229
v -0.355935 0.707778 0.832175
v -0.355935 0.828321 0.832175
v -0.355935 0.828321 0.341309
v -0.355935 0.707778 0.341309
v -0.385116 0.713412 -0.342992
v -0.379482 0.707778 -0.337357
v -0.379482 0.828321 -0.337357
v -0.385116 0.822686 -0.342992
v -0.385116 0.713412 -0.821594
v -0.379482 0.707778 -0.827229
v -0.379482 0.828321 -0.827229
v -0.385116 0.822686 -0.821594
v -0.385116 0.713412 0.826541
v -0.379482 0.707778 0.832175
v -0.379482 0.828321 0.832175
v -0.385116 0.822686 0.826541
v -0.385116 0.713412 0.346944
v -0.379482 0.707778 0.341309
v -0.379482 0.828321 0.341309
v -0.385116 0.822686 0.346944
v 0.541781 1.003356 -0.896987
v 0.530815 1.013876 -0.886589
v 0.530815 1.013876 -0.247965
v 0.541781 1.003356 -0.247965
v -0.407422 1.013876 -0.886589
v -0.418388 1.003356 -0.896987
v -0.418388 1.003356 -0.247965
v -0.407422 1.013876 -0.247965
v 0.541781 1.003356 0.252051
v 0.530815 1.013876 0.252051
v 0.541781 1.003356 0.901801
v 0.530815 1.013876 0.891402
v -0.407422 1.013876 0.252051
v -0.418388 1.003356 0.252051
v -0.407422 1.013876 0.891402
v -0.418388 1.003356 0.901801
v 0.537335 0.871102 -0.891940
v 0.541781 0.893397 -0.896987
v 0.541781 0.893397 -0.247965
v 0.537317 0.871098 -0.253033
v -0.418388 0.893397 -0.896987
v -0.413942 0.871102 -0.891940
v -0.413924 0.871098 -0.253033
v -0.418388 0.893397 -0.247965
v 0.537317 0.871098 0.257119
v 0.541781 0.893397 0.252051
v 0.537335 0.871102 0.896753
v 0.541781 0.893397 0.901801
v -0.418388 0.893397 0.252051
v -0.413924 0.871098 0.257119
v -0.418388 0.893397 0.901801
v -0.413942 0.871102 0.896753
vn -0.1662 -0.9861 -0.0000
vn -0.0000 -0.0000 1.0000
vn -1.0000 -0.0000 -0.0000
vn 1.0000 -0.0000 -0.0000
vn -0.0000 -0.0000 -1.0000
vn -0.0000 1.0000 -0.0000
vn 0.1662 -0.9861 -0.0000
vn -0.0000 -0.9556 -0.2947
vn -0.0000 -1.0000 -0.0000
vn -0.0000 -0.3855 -0.9227
vn 0.9227 -0.3855 -0.0000
vn -0.0000 -0.3855 0.9227
vn -0.9227 -0.3855 -0.0000
vn -0.0000 -0.9552 0.2958
vn -0.7071 -0.0000 -0.7071
vn -0.7071 0.7071 -0.0000
vn -0.7071 -0.7071 -0.0000
vn -0.7071 -0.0000 0.7071
vn 0.6923 0.7216 -0.0000
vn -0.6923 0.7216 -0.0000
vn -0.0000 0.7030 -0.7112
vn -0.0000 0.7030 0.7112
vn 0.9806 -0.1959 -0.0000
vn -0.9806 -0.1959 -0.0000
vn -0.0000 -0.2208 -0.9753
vn -0.0000 -0.2208 0.9753
vn -0.9805 -0.1963 -0.0000
vn 0.9805 -0.1963 -0.0000
vt 0.625000 0.500000
vt 0.625000 0.250000
vt 0.000000 0.000000
vt 0.625000 0.750000
vt 0.375000 0.250000
vt 0.125000 0.500000
vt 0.625000 0.250000
vt 0.625000 0.000000
vt 0.625000 1.000000
vt 0.000000 0.000000
vt 0.625000 0.000000
vt 0.375000 0.000000
vt 0.375000 1.000000
vt 0.125000 0.750000
vt 0.000000 0.000000
vt 0.416440 0.500000
vt 0.000000 0.000000
vt 0.416440 0.000000
vt 0.416440 1.000000
vt 0.000000 0.000000
vt 0.416440 0.750000
vt 0.000000 0.000000
vt 0.416440 0.250000
vt 0.570935 1.000000
vt 0.000000 0.000000
vt 0.570935 0.000000
vt 0.570935 0.500000
vt 0.000000 0.000000
vt 0.570935 0.750000
vt 0.570935 0.250000
vt 0.432350 0.279068
vt 0.555025 0.279068
vt 0.555025 0.470932
vt 0.432350 0.470932
vt 0.432350 0.512140
vt 0.555025 0.512140
vt 0.555025 0.737860
vt 0.432350 0.737860
vt 0.432350 0.012140
vt 0.555025 0.012140
vt 0.555025 0.237860
vt 0.432350 0.237860
vt 0.432350 0.779068
vt 0.555025 0.779068
vt 0.555025 0.970932
vt 0.432350 0.970932
vt 0.432350 0.279068
vt 0.555025 0.279068
vt 0.555025 0.470932
vt 0.432350 0.470932
vt 0.432350 0.512140
vt 0.555025 0.512140
vt 0.555025 0.737860
vt 0.432350 0.737860
vt 0.432350 0.012140
vt 0.555025 0.012140
vt 0.555025 0.237860
vt 0.432350 0.237860
vt 0.432350 0.779068
vt 0.555025 0.779068
vt 0.555025 0.970932
vt 0.432350 0.970932
vt 0.375000 0.750000
vt 0.625000 0.750000
vt 0.375000 0.500000
vt 0.625000 0.500000
vt 0.148527 0.523527
vt 0.351473 0.523527
vt 0.351473 0.726473
vt 0.148527 0.726473
vt 0.625000 0.250000
vt 0.375000 0.250000
vt 0.125000 0.500000
vt 0.625000 0.000000
vt 0.625000 1.000000
vt 0.375000 0.000000
vt 0.375000 1.000000
vt 0.125000 0.750000
vt 0.375000 0.750000
vt 0.625000 0.750000
vt 0.375000 0.500000
vt 0.625000 0.500000
vt 0.148527 0.523527
vt 0.351473 0.523527
vt 0.351473 0.726473
vt 0.148527 0.726473
vt 0.625000 0.250000
vt 0.375000 0.250000
vt 0.125000 0.500000
vt 0.625000 0.000000
vt 0.625000 1.000000
vt 0.375000 0.000000
vt 0.375000 1.000000
vt 0.125000 0.750000
vt 0.375000 0.750000
vt 0.625000 0.750000
vt 0.375000 0.500000
vt 0.625000 0.500000
vt 0.148527 0.523527
vt 0.351473 0.523527
vt 0.351473 0.726473
vt 0.148527 0.726473
vt 0.625000 0.250000
vt 0.375000 0.250000
vt 0.125000 0.500000
vt 0.625000 0.000000
vt 0.625000 1.000000
vt 0.375000 0.000000
vt 0.375000 1.000000
vt 0.125000 0.750000
vt 0.375000 0.750000
vt 0.625000 0.750000
vt 0.375000 0.500000
vt 0.625000 0.500000
vt 0.148527 0.523527
vt 0.351473 0.523527
vt 0.351473 0.726473
vt 0.148527 0.726473
vt 0.625000 0.500000
vt 0.000000 0.000000
vt 0.625000 0.250000
vt 0.625000 0.750000
vt 0.375000 0.250000
vt 0.125000 0.500000
vt 0.000000 0.000000
vt 0.625000 0.250000
vt 0.625000 0.000000
vt 0.625000 1.000000
vt 0.625000 1.000000
vt 0.625000 0.000000
vt 0.375000 0.000000
vt 0.375000 1.000000
vt 0.125000 0.750000
vt 0.000000 0.000000
vt 0.416440 0.500000
vt 0.000000 0.000000
vt 0.416440 0.000000
vt 0.416440 1.000000
vt 0.000000 0.000000
vt 0.416440 0.750000
vt 0.000000 0.000000
vt 0.416440 0.250000
vt 0.570935 1.000000
vt 0.570935 0.000000
vt 0.000000 0.000000
vt 0.570935 0.500000
vt 0.570935 0.750000
vt 0.000000 0.000000
vt 0.570935 0.250000
vt 0.432350 0.279068
vt 0.555025 0.279068
vt 0.555025 0.470932
vt 0.432350 0.470932
vt 0.432350 0.512140
vt 0.555025 0.512140
vt 0.555025 0.737860
vt 0.432350 0.737860
vt 0.432350 0.012140
vt 0.555025 0.012140
vt 0.555025 0.237860
vt 0.432350 0.237860
vt 0.432350 0.779068
vt 0.555025 0.779068
vt 0.555025 0.970932
vt 0.432350 0.970932
vt 0.432350 0.279068
vt 0.555025 0.279068
vt 0.555025 0.470932
vt 0.432350 0.470932
vt 0.432350 0.512140
vt 0.555025 0.512140
vt 0.555025 0.737860
vt 0.432350 0.737860
vt 0.432350 0.012140
vt 0.555025 0.012140
vt 0.555025 0.237860
vt 0.432350 0.237860
vt 0.432350 0.779068
vt 0.555025 0.779068
vt 0.555025 0.970932
vt 0.432350 0.970932
vt 0.375000 0.750000
vt 0.625000 0.750000
vt 0.375000 0.500000
vt 0.625000 0.500000
vt 0.148527 0.523527
vt 0.351473 0.523527
vt 0.351473 0.726473
vt 0.148527 0.726473
vt 0.625000 0.250000
vt 0.375000 0.250000
vt 0.125000 0.500000
vt 0.625000 0.000000
vt 0.625000 1.000000
vt 0.375000 0.000000
vt 0.375000 1.000000
vt 0.125000 0.750000
vt 0.375000 0.750000
vt 0.625000 0.750000
vt 0.375000 0.500000
vt 0.625000 0.500000
vt 0.148527 0.523527
vt 0.351473 0.523527
vt 0.351473 0.726473
vt 0.148527 0.726473
vt 0.625000 0.250000
vt 0.375000 0.250000
vt 0.125000 0.500000
vt 0.625000 0.000000
vt 0.625000 1.000000
vt 0.375000 0.000000
vt 0.375000 1.000000
vt 0.125000 0.750000
vt 0.375000 0.750000
vt 0.625000 0.750000
vt 0.375000 0.500000
vt 0.625000 0.500000
vt 0.148527 0.523527
vt 0.351473 0.523527
vt 0.351473 0.726473
vt 0.148527 0.726473
vt 0.625000 0.250000
vt 0.375000 0.250000
vt 0.125000 0.500000
vt 0.625000 0.000000
vt 0.625000 1.000000
vt 0.375000 0.000000
vt 0.375000 1.000000
vt 0.125000 0.750000
vt 0.375000 0.750000
vt 0.625000 0.750000
vt 0.375000 0.500000
vt 0.625000 0.500000
vt 0.148527 0.523527
vt 0.351473 0.523527
vt 0.351473 0.726473
vt 0.148527 0.726473
vt 0.000000 0.000000
vt 0.000000 0.000000
vt 0.000000 0.000000
vt 0.000000 0.000000
vt 0.000000 0.000000
vt 0.000000 0.000000
vt 0.000000 0.000000
vt 0.000000 0.000000
vt 0.000000 0.000000
vt 0.000000 0.000000
vt 0.000000 0.000000
vt 0.000000 0.000000
vt 0.578159 0.011214
vt 0.617776 0.011214
vt 0.617776 0.238786
vt 0.578159 0.238786
vt 0.578159 0.010873
vt 0.617776 0.010873
vt 0.617776 0.239127
vt 0.578159 0.239127
vt 0.579393 0.013129
vt 0.578159 0.011214
vt 0.617776 0.011214
vt 0.616542 0.013129
vt 0.579393 0.236871
vt 0.578159 0.238786
vt 0.617776 0.238786
vt 0.616543 0.236871
vt 0.579393 0.012730
vt 0.578159 0.010873
vt 0.617776 0.010873
vt 0.616543 0.012730
vt 0.579393 0.237270
vt 0.578159 0.239127
vt 0.617776 0.239127
vt 0.616543 0.237270
vt 0.625000 0.500000
vt 0.627855 0.503136
vt 0.625000 0.497145
vt 0.627855 0.750000
vt 0.625000 0.750000
vt 0.872145 0.503136
vt 0.625000 0.246864
vt 0.625000 0.252855
vt 0.625000 0.250000
vt 0.625000 0.000000
vt 0.872145 0.750000
vt 0.625000 0.000000
vt 0.625000 0.500000
vt 0.627855 0.500000
vt 0.625000 0.750000
vt 0.625000 0.752855
vt 0.627855 0.746948
vt 0.872145 0.500000
vt 0.625000 0.250000
vt 0.625000 0.250000
vt 0.872145 0.746948
vt 0.625000 0.997145
vt 0.625000 0.003052
vt 0.625000 1.000000
vt 0.625000 0.000000
vt 0.625000 0.500000
vt 0.625000 0.500000
vt 0.625000 0.750000
vt 0.000000 0.000000
vt 0.625000 0.750000
vt 0.625000 0.250000
vt 0.625000 0.250000
vt 0.000000 0.000000
vt 0.625000 0.000000
vt 0.625000 0.000000
vt 0.000000 0.000000
vt 0.625000 0.500000
vt 0.625000 0.500000
vt 0.625000 0.750000
vt 0.625000 0.750000
vt 0.625000 0.250000
vt 0.000000 0.000000
vt 0.625000 0.250000
vt 0.625000 1.000000
vt 0.625000 0.000000
vt 0.625000 1.000000
vt 0.625000 0.000000
s 0
usemtl Material
f 243/306/1 7/10/1 97/125/1 250/315/1
f 201/254/2 202/255/2 215/268/2 214/267/2
f 8/12/3 6/8/3 2/2/3 4/5/3
f 14/27/4 1/1/4 3/4/4 15/29/4
f 16/30/5 5/7/5 1/1/5 14/27/5
f 233/291/6 230/287/6 223/277/6 228/284/6
f 238/300/5 241/304/5 226/282/5 221/274/5
f 245/309/7 93/120/7 3/3/7 240/302/7
f 1/1/8 5/7/8 242/305/8 237/299/8
f 222/275/6 225/279/6 228/284/6 223/277/6
f 95/122/7 93/119/7 245/310/7 247/312/7
f 241/304/3 244/308/3 227/283/3 226/282/3
f 12/22/9 9/15/9 11/20/9 10/17/9
f 33/47/5 34/48/5 35/49/5 36/50/5
f 37/51/4 38/52/4 39/53/4 40/54/4
f 41/55/3 42/56/3 43/57/3 44/58/3
f 45/59/2 46/60/2 47/61/2 48/62/2
f 12/23/5 16/30/5 18/32/5 17/31/5
f 16/30/5 14/27/5 19/33/5 18/32/5
f 14/27/5 9/16/5 20/34/5 19/33/5
f 9/16/5 12/23/5 17/31/5 20/34/5
f 9/16/4 14/27/4 22/36/4 21/35/4
f 14/27/4 15/29/4 23/37/4 22/36/4
f 15/29/4 11/21/4 24/38/4 23/37/4
f 11/21/4 9/16/4 21/35/4 24/38/4
f 10/18/3 13/26/3 26/40/3 25/39/3
f 13/26/3 16/30/3 27/41/3 26/40/3
f 16/30/3 12/23/3 28/42/3 27/41/3
f 12/23/3 10/18/3 25/39/3 28/42/3
f 11/21/2 15/29/2 30/44/2 29/43/2
f 15/29/2 13/24/2 31/45/2 30/44/2
f 13/24/2 10/19/2 32/46/2 31/45/2
f 10/19/2 11/21/2 29/43/2 32/46/2
f 17/31/4 18/32/4 34/48/4 33/47/4
f 18/32/9 19/33/9 35/49/9 34/48/9
f 19/33/3 20/34/3 36/50/3 35/49/3
f 20/34/6 17/31/6 33/47/6 36/50/6
f 21/35/2 22/36/2 38/52/2 37/51/2
f 22/36/9 23/37/9 39/53/9 38/52/9
f 23/37/5 24/38/5 40/54/5 39/53/5
f 24/38/6 21/35/6 37/51/6 40/54/6
f 25/39/5 26/40/5 42/56/5 41/55/5
f 26/40/9 27/41/9 43/57/9 42/56/9
f 27/41/2 28/42/2 44/58/2 43/57/2
f 28/42/6 25/39/6 41/55/6 44/58/6
f 29/43/3 30/44/3 46/60/3 45/59/3
f 30/44/9 31/45/9 47/61/9 46/60/9
f 31/45/4 32/46/4 48/62/4 47/61/4
f 32/46/6 29/43/6 45/59/6 48/62/6
f 4/5/5 2/2/5 52/66/5 51/65/5
f 51/65/4 52/66/4 50/64/4 49/63/4
f 49/63/2 50/64/2 6/9/2 8/13/2
f 53/67/9 54/68/9 55/69/9 56/70/9
f 4/6/10 51/65/10 54/68/10 53/67/10
f 51/65/11 49/63/11 55/69/11 54/68/11
f 49/63/12 8/14/12 56/70/12 55/69/12
f 8/14/13 4/6/13 53/67/13 56/70/13
f 60/76/3 59/74/3 57/71/3 58/72/3
f 58/72/5 57/71/5 64/82/5 63/81/5
f 63/81/4 64/82/4 62/80/4 61/79/4
f 61/79/2 62/80/2 59/75/2 60/77/2
f 65/83/9 66/84/9 67/85/9 68/86/9
f 58/73/10 63/81/10 66/84/10 65/83/10
f 63/81/11 61/79/11 67/85/11 66/84/11
f 61/79/12 60/78/12 68/86/12 67/85/12
f 60/78/13 58/73/13 65/83/13 68/86/13
f 72/92/3 71/90/3 69/87/3 70/88/3
f 70/88/5 69/87/5 76/98/5 75/97/5
f 75/97/4 76/98/4 74/96/4 73/95/4
f 73/95/2 74/96/2 71/91/2 72/93/2
f 77/99/9 78/100/9 79/101/9 80/102/9
f 70/89/10 75/97/10 78/100/10 77/99/10
f 75/97/11 73/95/11 79/101/11 78/100/11
f 73/95/12 72/94/12 80/102/12 79/101/12
f 72/94/13 70/89/13 77/99/13 80/102/13
f 84/108/3 83/106/3 81/103/3 82/104/3
f 82/104/5 81/103/5 88/114/5 87/113/5
f 87/113/4 88/114/4 86/112/4 85/111/4
f 85/111/2 86/112/2 83/107/2 84/109/2
f 89/115/9 90/116/9 91/117/9 92/118/9
f 82/105/10 87/113/10 90/116/10 89/115/10
f 87/113/11 85/111/11 91/117/11 90/116/11
f 85/111/12 84/110/12 92/118/12 91/117/12
f 84/110/13 82/105/13 89/115/13 92/118/13
f 107/147/2 95/122/2 99/129/2 105/143/2
f 202/255/6 203/256/6 219/272/6 215/268/6
f 100/131/3 98/127/3 94/121/3 96/123/3
f 106/146/4 93/119/4 95/122/4 107/147/4
f 251/317/2 248/313/2 231/288/2 236/297/2
f 248/313/4 246/311/4 229/286/4 231/288/4
f 93/120/4 106/145/4 15/28/4 3/3/4
f 249/314/3 251/318/3 236/298/3 234/293/3
f 99/129/14 95/122/14 247/312/14 252/319/14
f 230/287/6 233/291/6 235/294/6 232/290/6
f 97/126/1 99/130/1 252/320/1 250/316/1
f 104/141/9 101/134/9 103/139/9 102/136/9
f 125/166/5 126/167/5 127/168/5 128/169/5
f 129/170/4 130/171/4 131/172/4 132/173/4
f 133/174/3 134/175/3 135/176/3 136/177/3
f 137/178/2 138/179/2 139/180/2 140/181/2
f 104/142/5 108/149/5 110/151/5 109/150/5
f 108/149/5 106/146/5 111/152/5 110/151/5
f 106/146/5 101/135/5 112/153/5 111/152/5
f 101/135/5 104/142/5 109/150/5 112/153/5
f 101/135/4 106/146/4 114/155/4 113/154/4
f 106/146/4 107/147/4 115/156/4 114/155/4
f 107/147/4 103/140/4 116/157/4 115/156/4
f 103/140/4 101/135/4 113/154/4 116/157/4
f 102/137/3 105/144/3 118/159/3 117/158/3
f 105/144/3 108/149/3 119/160/3 118/159/3
f 108/149/3 104/142/3 120/161/3 119/160/3
f 104/142/3 102/137/3 117/158/3 120/161/3
f 103/140/2 107/147/2 122/163/2 121/162/2
f 107/147/2 105/143/2 123/164/2 122/163/2
f 105/143/2 102/138/2 124/165/2 123/164/2
f 102/138/2 103/140/2 121/162/2 124/165/2
f 109/150/4 110/151/4 126/167/4 125/166/4
f 110/151/9 111/152/9 127/168/9 126/167/9
f 111/152/3 112/153/3 128/169/3 127/168/3
f 112/153/6 109/150/6 125/166/6 128/169/6
f 113/154/2 114/155/2 130/171/2 129/170/2
f 114/155/9 115/156/9 131/172/9 130/171/9
f 115/156/5 116/157/5 132/173/5 131/172/5
f 116/157/6 113/154/6 129/170/6 132/173/6
f 117/158/5 118/159/5 134/175/5 133/174/5
f 118/159/9 119/160/9 135/176/9 134/175/9
f 119/160/2 120/161/2 136/177/2 135/176/2
f 120/161/6 117/158/6 133/174/6 136/177/6
f 121/162/3 122/163/3 138/179/3 137/178/3
f 122/163/9 123/164/9 139/180/9 138/179/9
f 123/164/4 124/165/4 140/181/4 139/180/4
f 124/165/6 121/162/6 137/178/6 140/181/6
f 96/123/5 94/121/5 144/185/5 143/184/5
f 143/184/4 144/185/4 142/183/4 141/182/4
f 141/182/2 142/183/2 98/128/2 100/132/2
f 145/186/9 146/187/9 147/188/9 148/189/9
f 96/124/10 143/184/10 146/187/10 145/186/10
f 143/184/11 141/182/11 147/188/11 146/187/11
f 141/182/12 100/133/12 148/189/12 147/188/12
f 100/133/13 96/124/13 145/186/13 148/189/13
f 152/195/3 151/193/3 149/190/3 150/191/3
f 150/191/5 149/190/5 156/201/5 155/200/5
f 155/200/4 156/201/4 154/199/4 153/198/4
f 153/198/2 154/199/2 151/194/2 152/196/2
f 157/202/9 158/203/9 159/204/9 160/205/9
f 150/192/10 155/200/10 158/203/10 157/202/10
f 155/200/11 153/198/11 159/204/11 158/203/11
f 153/198/12 152/197/12 160/205/12 159/204/12
f 152/197/13 150/192/13 157/202/13 160/205/13
f 164/211/3 163/209/3 161/206/3 162/207/3
f 162/207/5 161/206/5 168/217/5 167/216/5
f 167/216/4 168/217/4 166/215/4 165/214/4
f 165/214/2 166/215/2 163/210/2 164/212/2
f 169/218/9 170/219/9 171/220/9 172/221/9
f 162/208/10 167/216/10 170/219/10 169/218/10
f 167/216/11 165/214/11 171/220/11 170/219/11
f 165/214/12 164/213/12 172/221/12 171/220/12
f 164/213/13 162/208/13 169/218/13 172/221/13
f 176/227/3 175/225/3 173/222/3 174/223/3
f 174/223/5 173/222/5 180/233/5 179/232/5
f 179/232/4 180/233/4 178/231/4 177/230/4
f 177/230/2 178/231/2 175/226/2 176/228/2
f 181/234/9 182/235/9 183/236/9 184/237/9
f 174/224/10 179/232/10 182/235/10 181/234/10
f 179/232/11 177/230/11 183/236/11 182/235/11
f 177/230/12 176/229/12 184/237/12 183/236/12
f 176/229/13 174/224/13 181/234/13 184/237/13
f 5/7/1 7/11/1 243/307/1 242/305/1
f 15/29/9 106/146/9 108/149/9 13/24/9
f 229/286/4 246/311/4 239/301/4 224/278/4
f 249/314/3 234/293/3 227/283/3 244/308/3
f 7/10/3 13/25/3 186/239/3 185/238/3
f 13/25/3 108/148/3 187/240/3 186/239/3
f 108/148/3 97/125/3 188/241/3 187/240/3
f 97/125/3 7/10/3 185/238/3 188/241/3
f 186/239/9 187/240/9 195/248/9 189/242/9
f 187/240/2 188/241/2 194/247/2 195/248/2
f 188/241/6 185/238/6 192/245/6 194/247/6
f 191/244/3 190/243/3 196/249/3 193/246/3
f 190/243/15 191/244/15 192/245/15 189/242/15
f 194/247/16 192/245/16 191/244/16 193/246/16
f 189/242/17 195/248/17 196/249/17 190/243/17
f 193/246/18 196/249/18 195/248/18 194/247/18
f 185/238/5 186/239/5 189/242/5 192/245/5
f 13/26/3 7/11/3 198/251/3 197/250/3
f 7/11/3 5/7/3 199/252/3 198/251/3
f 5/7/3 16/30/3 200/253/3 199/252/3
f 16/30/3 13/26/3 197/250/3 200/253/3
f 105/144/3 99/130/3 202/255/3 201/254/3
f 99/130/3 97/126/3 203/256/3 202/255/3
f 97/126/3 108/149/3 204/257/3 203/256/3
f 108/149/3 105/144/3 201/254/3 204/257/3
f 200/253/9 197/250/9 206/259/9 210/263/9
f 204/257/9 201/254/9 214/267/9 218/271/9
f 198/251/6 199/252/6 211/264/6 207/260/6
f 203/256/5 204/257/5 218/271/5 219/272/5
f 213/266/3 216/269/3 220/273/3 217/270/3
f 199/252/5 200/253/5 210/263/5 211/264/5
f 205/258/3 208/261/3 212/265/3 209/262/3
f 206/259/18 207/260/18 208/261/18 205/258/18
f 205/258/17 209/262/17 210/263/17 206/259/17
f 207/260/16 211/264/16 212/265/16 208/261/16
f 211/264/15 210/263/15 209/262/15 212/265/15
f 214/267/18 215/268/18 216/269/18 213/266/18
f 213/266/17 217/270/17 218/271/17 214/267/17
f 215/268/16 219/272/16 220/273/16 216/269/16
f 219/272/15 218/271/15 217/270/15 220/273/15
f 197/250/2 198/251/2 207/260/2 206/259/2
f 222/275/19 223/277/19 224/278/19 221/274/19
f 228/285/20 225/280/20 226/282/20 227/283/20
f 225/281/21 222/276/21 221/274/21 226/282/21
f 232/289/22 235/295/22 236/297/22 231/288/22
f 230/287/19 232/290/19 231/288/19 229/286/19
f 235/296/20 233/292/20 234/293/20 236/298/20
f 233/292/20 228/285/20 227/283/20 234/293/20
f 229/286/19 224/278/19 223/277/19 230/287/19
f 3/4/7 1/1/7 237/299/7 240/303/7
f 238/300/23 239/301/23 240/303/23 237/299/23
f 244/308/24 241/304/24 242/305/24 243/307/24
f 241/304/25 238/300/25 237/299/25 242/305/25
f 248/313/26 251/317/26 252/319/26 247/312/26
f 246/311/23 248/313/23 247/312/23 245/310/23
f 251/318/24 249/314/24 250/316/24 252/320/24
f 243/307/27 250/316/27 249/314/27 244/308/27
f 245/310/28 240/303/28 239/301/28 246/311/28
f 239/301/4 238/300/4 221/274/4 224/278/4
