# Blender 3.4.1
# www.blender.org
mtllib BarTable_02.mtl
o Cube.207
v -0.659498 0.003440 0.189727
v -0.583494 1.130456 0.167802
v -0.583494 0.003440 -0.251754
v -0.583494 1.130456 -0.251754
v -0.659498 0.003440 -0.111729
v -0.583494 1.130456 -0.111729
v -0.583494 1.251267 0.167802
v -0.583494 1.251267 -0.111729
v -0.583494 1.251267 -0.251754
v -0.583494 1.130456 0.204582
v -0.583494 1.251267 0.204582
v -0.555893 0.179473 0.159694
v -0.583494 0.151871 -0.251754
v -0.583494 0.151871 -0.111729
v -0.583494 0.003440 0.167802
v -0.583494 0.003440 -0.111729
v -0.659498 0.003440 -0.273678
v -0.659498 0.151871 0.189727
v -0.659498 0.151871 -0.111729
v -0.659498 0.151871 -0.273678
v -0.630066 0.121578 0.181237
v -0.659498 0.033732 0.189727
v -0.630066 0.121578 -0.265188
v -0.659498 0.033732 -0.273678
v -0.659498 0.033732 -0.111729
v -0.659498 0.121578 -0.111729
v -0.659498 0.121578 0.189727
v -0.630066 0.033732 0.181237
v -0.630066 0.121578 -0.111729
v -0.659498 0.121578 -0.273678
v -0.630066 0.033732 -0.265188
v -0.630066 0.033732 -0.111729
v -0.555893 1.057093 0.159694
v -0.583494 1.084695 -0.251754
v -0.583494 1.084695 -0.111729
v -0.583494 1.084695 0.167802
v -0.583494 0.151871 0.167802
v -0.555893 1.057093 0.167802
v -0.555893 0.179473 0.167802
v -0.527775 1.028975 0.159694
v -0.527775 0.207591 0.159694
v -0.527775 1.028975 0.143943
v -0.527775 0.207591 0.143943
v -0.692782 1.251267 0.181326
v -0.692782 1.251267 -0.116636
v -0.692782 1.251267 -0.265893
v -0.692782 1.251267 0.220532
v -0.692782 1.321948 0.181326
v -0.692782 1.321948 -0.116636
v -0.692782 1.321948 -0.265893
v -0.692782 1.321948 0.220532
v 0.828703 0.003440 0.167802
v 0.828703 1.130456 0.167802
v 0.828703 0.003440 -0.251754
v 0.828703 1.130456 -0.251754
v 0.828703 0.003440 -0.111729
v 0.828703 1.251267 -0.251754
v 0.828703 1.130456 0.204582
v 0.828703 1.251267 0.204582
v 0.828703 0.151871 -0.251754
v 0.828703 0.151871 0.167802
v 0.828703 0.003440 0.189727
v 0.828703 0.003440 -0.273678
v 0.828703 0.151871 -0.273678
v 0.828703 0.151871 0.189727
v 0.828703 0.121578 0.189727
v 0.828703 0.033732 0.189727
v 0.828703 0.121578 -0.273678
v 0.828703 0.033732 -0.273678
v 0.828703 0.121578 0.181237
v 0.828703 0.033732 0.181237
v 0.828703 0.121578 -0.265188
v 0.828703 0.033732 -0.265188
v 0.828703 1.084695 -0.251754
v 0.828703 1.084695 0.167802
v 0.828703 0.179473 0.167802
v 0.828703 1.057093 0.167802
v 0.828703 0.179473 0.159694
v 0.828703 1.057093 0.159694
v 0.828703 0.207591 0.159694
v 0.828703 1.028975 0.159694
v 0.828703 0.207591 0.143943
v 0.828703 1.028975 0.143943
v 0.828703 1.251267 -0.265893
v 0.828703 1.251267 0.220532
v 0.828703 1.321948 0.181326
v 0.828703 1.321948 -0.265893
v 0.828703 1.321948 -0.116636
v 0.828703 1.321948 0.220532
vn -0.0000 -0.0000 1.0000
vn -1.0000 -0.0000 -0.0000
vn -0.0000 -0.0000 -1.0000
vn -0.0000 -1.0000 -0.0000
vn -0.0000 1.0000 -0.0000
vn 1.0000 -0.0000 -0.0000
vt 0.375000 0.250000
vt 0.625000 0.250000
vt 0.375000 0.500000
vt 0.625000 0.500000
vt 0.375000 0.416564
vt 0.625000 0.416564
vt 0.625000 0.250000
vt 0.625000 0.416564
vt 0.625000 0.500000
vt 0.625000 0.250000
vt 0.625000 0.250000
vt 0.414048 0.246827
vt 0.407926 0.500000
vt 0.407926 0.416564
vt 0.375000 0.250000
vt 0.125000 0.500000
vt 0.375000 0.416564
vt 0.291564 0.500000
vt 0.375000 0.500000
vt 0.407926 0.250000
vt 0.407926 0.416564
vt 0.407926 0.500000
vt 0.401206 0.250000
vt 0.381720 0.250000
vt 0.401206 0.500000
vt 0.381720 0.500000
vt 0.381720 0.416564
vt 0.401206 0.416564
vt 0.401206 0.250000
vt 0.381720 0.250000
vt 0.401206 0.416564
vt 0.401206 0.500000
vt 0.381720 0.500000
vt 0.381720 0.416564
vt 0.608726 0.246827
vt 0.614849 0.500000
vt 0.614849 0.416564
vt 0.614849 0.250000
vt 0.407926 0.250000
vt 0.608726 0.246827
vt 0.414048 0.246827
vt 0.602489 0.243571
vt 0.420286 0.243571
vt 0.602489 0.243571
vt 0.420286 0.243571
vt 0.625000 0.250000
vt 0.625000 0.416564
vt 0.625000 0.500000
vt 0.625000 0.250000
vt 0.625000 0.250000
vt 0.875000 0.500000
vt 0.625000 0.416564
vt 0.708436 0.500000
vt 0.625000 0.500000
vt 0.875000 0.500000
vt 0.625000 0.250000
vt 0.375000 0.110827
vt 0.125000 0.639173
vt 0.625000 0.110827
vt 0.375000 0.607155
vt 0.625000 0.607155
vt 0.291564 0.607155
vt 0.625000 0.607155
vt 0.625000 0.110827
vt 0.625000 0.110827
vt 0.407926 0.607155
vt 0.407926 0.110827
vt 0.375000 0.109613
vt 0.375000 0.608066
vt 0.407926 0.608066
vt 0.407926 0.109613
vt 0.401206 0.109613
vt 0.381720 0.109613
vt 0.401206 0.608066
vt 0.381720 0.608066
vt 0.401206 0.110068
vt 0.381720 0.110068
vt 0.401206 0.607725
vt 0.381720 0.607725
vt 0.614849 0.607155
vt 0.614849 0.110827
vt 0.414048 0.110827
vt 0.608726 0.110827
vt 0.414048 0.109871
vt 0.608726 0.109871
vt 0.420286 0.109871
vt 0.602489 0.109871
vt 0.420286 0.109871
vt 0.602489 0.109871
vt 0.625000 0.609602
vt 0.625000 0.107648
vt 0.875000 0.642352
vt 0.625000 0.609602
vt 0.708436 0.609602
vt 0.625000 0.107648
vt 0.875000 0.642352
s 0
f 75/81/1 53/59/1 2/2/1 36/38/1
f 35/37/2 6/6/2 4/4/2 34/36/2
f 55/61/3 4/4/3 9/9/3 57/63/3
f 4/4/2 6/6/2 8/8/2 9/9/2
f 36/38/2 2/2/2 6/6/2 35/37/2
f 6/6/2 2/2/2 7/7/2 8/8/2
f 7/7/4 11/11/4 47/49/4 44/46/4
f 7/7/2 2/2/2 10/10/2 11/11/2
f 66/72/1 65/71/1 18/20/1 27/29/1
f 26/28/2 19/21/2 20/22/2 30/32/2
f 62/68/4 1/1/4 15/15/4 52/57/4
f 1/1/4 5/5/4 16/17/4 15/15/4
f 5/5/4 17/19/4 3/3/4 16/17/4
f 19/21/5 18/20/5 37/39/5 14/14/5
f 64/70/5 20/22/5 13/13/5 60/66/5
f 20/22/5 19/21/5 14/14/5 13/13/5
f 27/29/2 18/20/2 19/21/2 26/28/2
f 5/5/2 25/27/2 24/26/2 17/19/2
f 62/68/1 67/73/1 22/24/1 1/1/1
f 70/76/1 21/23/1 28/30/1 71/77/1
f 29/31/2 23/25/2 31/33/2 32/34/2
f 21/23/2 29/31/2 32/34/2 28/30/2
f 1/1/2 22/24/2 25/27/2 5/5/2
f 71/77/5 28/30/5 22/24/5 67/73/5
f 23/25/4 29/31/4 26/28/4 30/32/4
f 32/34/5 31/33/5 24/26/5 25/27/5
f 72/78/4 23/25/4 30/32/4 68/74/4
f 29/31/4 21/23/4 27/29/4 26/28/4
f 28/30/5 32/34/5 25/27/5 22/24/5
f 37/39/2 36/38/2 35/37/2 14/14/2
f 14/14/2 35/37/2 34/36/2 13/13/2
f 82/88/1 83/89/1 42/44/1 43/45/1
f 39/41/1 38/40/1 36/38/1 37/39/1
f 76/82/1 39/41/1 37/39/1 61/67/1
f 12/12/6 33/35/6 38/40/6 39/41/6
f 78/84/5 12/12/5 39/41/5 76/82/5
f 79/85/1 33/35/1 40/42/1 81/87/1
f 33/35/1 12/12/1 41/43/1 40/42/1
f 81/87/4 40/42/4 42/44/4 83/89/4
f 40/42/6 41/43/6 43/45/6 42/44/6
f 44/46/2 47/49/2 51/56/2 48/50/2
f 46/48/2 45/47/2 49/52/2 50/54/2
f 45/47/2 44/46/2 48/50/2 49/52/2
f 8/8/4 7/7/4 44/46/4 45/47/4
f 9/9/4 8/8/4 45/47/4 46/48/4
f 57/63/4 9/9/4 46/48/4 84/90/4
f 86/92/5 48/51/5 51/55/5 89/96/5
f 84/90/3 46/48/3 50/54/3 87/93/3
f 47/49/1 85/91/1 89/95/1 51/56/1
f 50/54/5 49/53/5 88/94/5 87/93/5
f 49/53/5 48/51/5 86/92/5 88/94/5
f 41/43/5 80/86/5 82/88/5 43/45/5
f 12/12/1 78/84/1 80/86/1 41/43/1
f 33/35/4 79/85/4 77/83/4 38/40/4
f 38/40/1 77/83/1 75/81/1 36/38/1
f 13/13/3 34/36/3 74/80/3 60/66/3
f 31/33/5 73/79/5 69/75/5 24/26/5
f 21/23/4 70/76/4 66/72/4 27/29/4
f 23/25/3 72/78/3 73/79/3 31/33/3
f 30/32/3 20/22/3 64/70/3 68/74/3
f 18/20/5 65/71/5 61/67/5 37/39/5
f 17/19/4 63/69/4 54/60/4 3/3/4
f 17/19/3 24/26/3 69/75/3 63/69/3
f 2/2/4 53/59/4 58/64/4 10/10/4
f 10/10/1 58/64/1 59/65/1 11/11/1
f 11/11/4 59/65/4 85/91/4 47/49/4
f 15/16/4 16/18/4 56/62/4 52/58/4
f 16/18/4 3/3/4 54/60/4 56/62/4
f 34/36/3 4/4/3 55/61/3 74/80/3
f 89/96/6 85/91/6 59/65/6 58/64/6 53/59/6 75/81/6 77/83/6 79/85/6 81/87/6 83/89/6 82/88/6 80/86/6 78/84/6 76/82/6 61/67/6 65/71/6 66/72/6 70/76/6 71/77/6 67/73/6 62/68/6 52/58/6 56/62/6 54/60/6 63/69/6 69/75/6 73/79/6 72/78/6 68/74/6 64/70/6 60/66/6 74/80/6 55/61/6 57/63/6 84/90/6 87/93/6 88/94/6 86/92/6
