# Blender 3.4.1
# www.blender.org
mtllib DeskStorage_02.mtl
o Cube.157
v 0.503472 0.339276 -0.258835
v 0.503472 0.228882 0.246758
v -0.509479 0.339276 -0.258835
v -0.509479 0.228882 0.246758
v -0.509479 0.001444 0.246758
v 0.503472 0.001444 -0.258835
v 0.503472 0.001444 0.246758
v -0.509479 0.001444 -0.258835
v -0.509479 0.001444 0.246758
v 0.503472 0.001444 -0.258835
v 0.503472 0.001444 0.246758
v -0.509479 0.001444 -0.258835
v 0.473531 0.042136 0.246758
v 0.473531 0.188190 0.246758
v -0.479538 0.188190 0.246758
v -0.479538 0.042136 0.246758
v 0.473531 0.188190 0.223181
v 0.473531 0.042136 0.223181
v -0.479538 0.042136 0.223181
v -0.479538 0.188190 0.223181
v 0.461498 0.058488 0.223181
v 0.461498 0.171838 0.223181
v -0.467505 0.171838 0.223181
v -0.467505 0.058488 0.223181
v 0.443291 0.163567 0.236891
v 0.443291 0.066758 0.236891
v -0.449298 0.066758 0.236891
v -0.449298 0.163567 0.236891
vn -0.0000 -1.0000 -0.0000
vn -1.0000 -0.0000 -0.0000
vn 1.0000 -0.0000 -0.0000
vn -0.0000 -0.0000 -1.0000
vn -0.0000 0.9770 0.2133
vn -0.0000 1.0000 -0.0000
vn -0.0000 -0.0000 1.0000
vn -0.0000 0.8563 0.5165
vn 0.6015 -0.0000 0.7988
vn -0.6015 -0.0000 0.7988
vn -0.0000 -0.8563 0.5165
vt 0.625000 0.500000
vt 0.000000 0.000000
vt 0.000000 0.000000
vt 0.625000 0.750000
vt 0.625000 0.250000
vt 0.000000 0.000000
vt 0.625000 0.000000
vt 0.000000 0.000000
vt 0.625000 1.000000
vt 0.570935 0.000000
vt 0.570935 1.000000
vt 0.570935 0.500000
vt 0.570935 0.750000
vt 0.570935 0.250000
vt 0.000000 0.000000
vt 0.570935 0.000000
vt 0.570935 1.000000
vt 0.570935 0.500000
vt 0.000000 0.000000
vt 0.000000 0.000000
vt 0.570935 0.750000
vt 0.000000 0.000000
vt 0.570935 0.250000
vt 0.577447 0.762984
vt 0.618488 0.762984
vt 0.618488 0.987016
vt 0.577447 0.987016
vt 0.618488 0.762984
vt 0.577447 0.762984
vt 0.577447 0.987016
vt 0.618488 0.987016
vt 0.580064 0.768201
vt 0.615871 0.768202
vt 0.615871 0.981798
vt 0.580064 0.981798
vt 0.615871 0.768202
vt 0.580064 0.768201
vt 0.580064 0.981798
vt 0.615871 0.981798
s 0
usemtl Material
f 14/25/1 15/26/1 20/31/1 17/28/1
f 5/10/2 4/7/2 3/5/2 8/14/2
f 6/12/3 1/1/3 2/4/3 7/13/3
f 8/14/4 3/5/4 1/1/4 6/12/4
f 4/8/5 2/3/5 1/2/5 3/6/5
f 6/12/6 7/13/6 11/21/6 10/18/6
f 8/14/6 6/12/6 10/18/6 12/23/6
f 11/20/1 9/15/1 12/22/1 10/19/1
f 5/10/6 8/14/6 12/23/6 9/16/6
f 7/13/6 5/11/6 9/17/6 11/21/6
f 7/13/7 2/4/7 14/25/7 13/24/7
f 2/4/7 4/9/7 15/26/7 14/25/7
f 4/9/7 5/11/7 16/27/7 15/26/7
f 5/11/7 7/13/7 13/24/7 16/27/7
f 22/33/8 23/34/8 28/39/8 25/36/8
f 13/24/2 14/25/2 17/28/2 18/29/2
f 15/26/3 16/27/3 19/30/3 20/31/3
f 16/27/6 13/24/6 18/29/6 19/30/6
f 18/29/7 17/28/7 22/33/7 21/32/7
f 17/28/7 20/31/7 23/34/7 22/33/7
f 20/31/7 19/30/7 24/35/7 23/34/7
f 19/30/7 18/29/7 21/32/7 24/35/7
f 26/37/7 25/36/7 28/39/7 27/38/7
f 21/32/9 22/33/9 25/36/9 26/37/9
f 23/34/10 24/35/10 27/38/10 28/39/10
f 24/35/11 21/32/11 26/37/11 27/38/11
