# Blender 3.4.1
# www.blender.org
mtllib Shelf_02.mtl
o Cube.150
v 0.523061 0.000496 0.406941
v 0.523061 1.776636 0.406941
v -0.523061 0.000496 0.406941
v -0.523061 1.776636 0.406941
v 0.523061 0.000496 -0.406941
v 0.523061 1.776636 -0.406941
v -0.523061 0.000496 -0.406941
v -0.523061 1.776636 -0.406941
v 0.523061 0.760076 0.406941
v 0.523061 1.129967 0.406941
v -0.523061 1.129967 0.406941
v -0.523061 0.760076 0.406941
v -0.523061 1.129967 -0.406941
v -0.523061 0.760076 -0.406941
v 0.523061 1.129967 -0.406941
v 0.523061 0.760076 -0.406941
v -0.523061 0.052471 0.406941
v -0.523061 0.052471 -0.406941
v 0.523061 0.052471 -0.406941
v 0.523061 0.052471 0.406941
v 0.421346 1.179624 0.406941
v 0.421346 1.674922 0.406941
v -0.421346 1.674922 0.406941
v -0.421346 1.179624 0.406941
v -0.421346 1.179624 -0.406941
v -0.421346 1.674922 -0.406941
v 0.421346 1.674922 -0.406941
v 0.421346 1.179624 -0.406941
v -0.421346 0.154186 -0.406941
v -0.421346 0.720678 -0.406941
v 0.421346 0.720678 -0.406941
v 0.421346 0.154186 -0.406941
v -0.421346 0.799475 -0.406941
v -0.421346 1.080310 -0.406941
v 0.421346 1.080310 -0.406941
v 0.421346 0.799475 -0.406941
v 0.421346 0.154186 0.406941
v 0.421346 0.720678 0.406941
v -0.421346 0.720678 0.406941
v -0.421346 0.154186 0.406941
v 0.421346 0.799475 0.406941
v 0.421346 1.080310 0.406941
v -0.421346 1.080310 0.406941
v -0.421346 0.799475 0.406941
vn 1.0000 -0.0000 -0.0000
vn -1.0000 -0.0000 -0.0000
vn -0.0000 1.0000 -0.0000
vn -0.0000 -1.0000 -0.0000
vn -0.0000 -0.0000 1.0000
vn -0.0000 -0.0000 -1.0000
vt 0.125000 0.750000
vt 0.375000 0.000000
vt 0.375000 1.000000
vt 0.625000 1.000000
vt 0.875000 0.750000
vt 0.625000 0.000000
vt 0.125000 0.500000
vt 0.375000 0.250000
vt 0.875000 0.500000
vt 0.625000 0.250000
vt 0.375000 0.750000
vt 0.625000 0.750000
vt 0.375000 0.500000
vt 0.625000 0.500000
vt 0.458333 1.000000
vt 0.458333 0.000000
vt 0.541667 1.000000
vt 0.541667 0.000000
vt 0.541667 0.250000
vt 0.458333 0.250000
vt 0.541667 0.500000
vt 0.458333 0.500000
vt 0.541667 0.750000
vt 0.458333 0.750000
vt 0.380809 0.250000
vt 0.380809 0.500000
vt 0.380809 0.750000
vt 0.380809 1.000000
vt 0.380809 0.000000
vt 0.555480 0.017751
vt 0.611186 0.017751
vt 0.611186 0.232249
vt 0.555480 0.232249
vt 0.555480 0.517751
vt 0.611186 0.517751
vt 0.611186 0.732249
vt 0.555480 0.732249
vt 0.392177 0.517751
vt 0.446965 0.517751
vt 0.446965 0.732249
vt 0.392177 0.732249
vt 0.475933 0.517751
vt 0.524067 0.517751
vt 0.524067 0.732249
vt 0.475933 0.732249
vt 0.392177 0.017751
vt 0.446965 0.017751
vt 0.446965 0.232249
vt 0.392177 0.232249
vt 0.475933 0.017751
vt 0.524067 0.017751
vt 0.524067 0.232249
vt 0.475933 0.232249
s 0
f 25/34/1 26/35/1 23/32/1 24/33/1
f 11/19/2 4/10/2 8/14/2 13/21/2
f 28/37/3 25/34/3 24/33/3 21/30/3
f 15/23/1 6/12/1 2/4/1 10/17/1
f 3/7/4 7/13/4 5/11/4 1/1/4
f 8/14/3 4/9/3 2/5/3 6/12/3
f 19/27/1 16/24/1 9/15/1 20/28/1
f 16/24/1 15/23/1 10/17/1 9/15/1
f 37/46/2 38/47/2 31/40/2 32/41/2
f 41/50/2 42/51/2 35/44/2 36/45/2
f 17/25/2 12/20/2 14/22/2 18/26/2
f 12/20/2 11/19/2 13/21/2 14/22/2
f 40/49/3 37/46/3 32/41/3 29/38/3
f 44/53/3 41/50/3 36/45/3 33/42/3
f 1/2/5 20/29/5 17/25/5 3/8/5
f 3/8/2 17/25/2 18/26/2 7/13/2
f 7/13/6 18/26/6 19/27/6 5/11/6
f 5/11/1 19/27/1 20/28/1 1/3/1
f 10/18/5 2/6/5 22/31/5 21/30/5
f 2/6/5 4/10/5 23/32/5 22/31/5
f 4/10/5 11/19/5 24/33/5 23/32/5
f 11/19/5 10/18/5 21/30/5 24/33/5
f 13/21/6 8/14/6 26/35/6 25/34/6
f 8/14/6 6/12/6 27/36/6 26/35/6
f 6/12/6 15/23/6 28/37/6 27/36/6
f 15/23/6 13/21/6 25/34/6 28/37/6
f 18/26/6 14/22/6 30/39/6 29/38/6
f 14/22/6 16/24/6 31/40/6 30/39/6
f 16/24/6 19/27/6 32/41/6 31/40/6
f 19/27/6 18/26/6 29/38/6 32/41/6
f 14/22/6 13/21/6 34/43/6 33/42/6
f 13/21/6 15/23/6 35/44/6 34/43/6
f 15/23/6 16/24/6 36/45/6 35/44/6
f 16/24/6 14/22/6 33/42/6 36/45/6
f 20/29/5 9/16/5 38/47/5 37/46/5
f 9/16/5 12/20/5 39/48/5 38/47/5
f 12/20/5 17/25/5 40/49/5 39/48/5
f 17/25/5 20/29/5 37/46/5 40/49/5
f 9/16/5 10/18/5 42/51/5 41/50/5
f 10/18/5 11/19/5 43/52/5 42/51/5
f 11/19/5 12/20/5 44/53/5 43/52/5
f 12/20/5 9/16/5 41/50/5 44/53/5
f 26/35/4 27/36/4 22/31/4 23/32/4
f 27/36/2 28/37/2 21/30/2 22/31/2
f 42/51/4 43/52/4 34/43/4 35/44/4
f 43/52/1 44/53/1 33/42/1 34/43/1
f 38/47/4 39/48/4 30/39/4 31/40/4
f 39/48/1 40/49/1 29/38/1 30/39/1
