# Blender 3.4.1
# www.blender.org
mtllib Table_02.mtl
o Cube.124
v 0.417078 1.153451 -0.457145
v -0.396915 0.206457 -0.445326
v 0.417078 1.153451 0.462721
v -0.396915 0.099012 -0.445326
v -0.418184 1.153451 -0.457145
v -0.396915 0.206457 -0.337881
v -0.418184 1.153451 0.462721
v -0.396915 0.099012 -0.337881
v 0.460031 1.164306 -0.508570
v 0.460031 1.164306 0.514146
v -0.461138 1.164306 -0.508570
v -0.461138 1.164306 0.514146
v 0.460031 1.291656 -0.508570
v 0.460031 1.291656 0.514146
v -0.461138 1.291656 -0.508570
v -0.461138 1.291656 0.514146
v 0.417078 0.200633 -0.457145
v -0.418184 0.200633 0.462721
v 0.417078 0.200633 0.462721
v -0.418184 0.200633 -0.457145
v -0.418184 0.906451 0.462721
v 0.417078 0.906451 -0.457145
v 0.417078 0.906451 0.462721
v -0.418184 0.906451 -0.457145
v -0.321068 0.273319 -0.457145
v -0.321068 0.833765 -0.457145
v 0.319961 0.833765 -0.457145
v 0.319961 0.273319 -0.457145
v 0.417078 0.273319 -0.408587
v 0.417078 0.833765 -0.408587
v 0.417078 0.833765 0.414163
v 0.417078 0.273319 0.414163
v -0.418184 0.273319 0.414163
v -0.418184 0.833765 0.414163
v -0.418184 0.833765 -0.408587
v -0.418184 0.273319 -0.408587
v 0.319961 0.273319 0.462721
v 0.319961 0.833765 0.462721
v -0.321068 0.833765 0.462721
v -0.321068 0.273319 0.462721
v -0.321068 0.273319 -0.428374
v -0.321068 0.833765 -0.428374
v 0.319961 0.833765 -0.428374
v 0.319961 0.273319 -0.428374
v 0.359536 0.273319 -0.408587
v 0.359536 0.833765 -0.408587
v 0.359536 0.833765 0.414163
v 0.359536 0.273319 0.414163
v -0.360642 0.273319 0.414163
v -0.360642 0.833765 0.414163
v -0.360642 0.833765 -0.408587
v -0.360642 0.273319 -0.408587
v 0.319961 0.273319 0.433950
v 0.319961 0.833765 0.433950
v -0.321068 0.833765 0.433950
v -0.321068 0.273319 0.433950
v -0.289469 0.099012 -0.337881
v -0.289469 0.206457 -0.337881
v -0.289469 0.099012 -0.445326
v -0.289469 0.206457 -0.445326
v -0.360434 0.011691 -0.408845
v -0.325950 0.011691 -0.408845
v -0.325950 0.011691 -0.374362
v -0.360434 0.011691 -0.374362
v -0.396915 0.206457 0.331840
v -0.396915 0.099012 0.331840
v -0.396915 0.206457 0.439286
v -0.396915 0.099012 0.439286
v -0.289469 0.099012 0.439286
v -0.289469 0.206457 0.439286
v -0.289469 0.099012 0.331840
v -0.289469 0.206457 0.331840
v -0.360434 0.011691 0.368321
v -0.325950 0.011691 0.368321
v -0.325950 0.011691 0.402804
v -0.360434 0.011691 0.402804
v 0.290668 0.206457 -0.445326
v 0.290668 0.099012 -0.445326
v 0.290668 0.206457 -0.337881
v 0.290668 0.099012 -0.337881
v 0.398113 0.099012 -0.337881
v 0.398113 0.206457 -0.337881
v 0.398113 0.099012 -0.445326
v 0.398113 0.206457 -0.445326
v 0.327149 0.011691 -0.408845
v 0.361632 0.011691 -0.408845
v 0.361632 0.011691 -0.374362
v 0.327149 0.011691 -0.374362
v 0.290668 0.206457 0.331840
v 0.290668 0.099012 0.331840
v 0.290668 0.206457 0.439286
v 0.290668 0.099012 0.439286
v 0.398113 0.099012 0.439286
v 0.398113 0.206457 0.439286
v 0.398113 0.099012 0.331840
v 0.398113 0.206457 0.331840
v 0.327149 0.011691 0.368321
v 0.361632 0.011691 0.368321
v 0.361632 0.011691 0.402804
v 0.327149 0.011691 0.402804
vn -0.2450 -0.9695 -0.0000
vn -0.0000 -0.0000 1.0000
vn -1.0000 -0.0000 -0.0000
vn 1.0000 -0.0000 -0.0000
vn -0.0000 -0.0000 -1.0000
vn 0.2450 -0.9695 -0.0000
vn -0.0000 -0.9784 -0.2065
vn -0.0000 -0.9784 0.2065
vn -0.0000 1.0000 -0.0000
vn -0.0000 -1.0000 -0.0000
vn -0.0000 -0.3855 -0.9227
vn 0.9227 -0.3855 -0.0000
vn -0.0000 -0.3855 0.9227
vn -0.9227 -0.3855 -0.0000
vt 0.625000 0.500000
vt 0.625000 0.250000
vt 0.625000 0.750000
vt 0.375000 0.250000
vt 0.125000 0.500000
vt 0.625000 0.250000
vt 0.625000 0.000000
vt 0.625000 1.000000
vt 0.625000 0.000000
vt 0.625000 1.000000
vt 0.375000 0.000000
vt 0.375000 1.000000
vt 0.125000 0.750000
vt 0.625000 0.500000
vt 0.625000 0.750000
vt 0.625000 0.250000
vt 0.625000 0.000000
vt 0.625000 1.000000
vt 0.625000 0.500000
vt 0.625000 0.750000
vt 0.875000 0.500000
vt 0.625000 0.250000
vt 0.875000 0.750000
vt 0.625000 0.000000
vt 0.625000 1.000000
vt 0.000000 0.000000
vt 0.416440 0.500000
vt 0.000000 0.000000
vt 0.416440 0.000000
vt 0.416440 1.000000
vt 0.000000 0.000000
vt 0.416440 0.750000
vt 0.000000 0.000000
vt 0.416440 0.250000
vt 0.570935 0.000000
vt 0.570935 1.000000
vt 0.570935 0.500000
vt 0.570935 0.750000
vt 0.570935 0.250000
vt 0.432350 0.279068
vt 0.555025 0.279068
vt 0.555025 0.470932
vt 0.432350 0.470932
vt 0.432350 0.512140
vt 0.555025 0.512140
vt 0.555025 0.737860
vt 0.432350 0.737860
vt 0.432350 0.012140
vt 0.555025 0.012140
vt 0.555025 0.237860
vt 0.432350 0.237860
vt 0.432350 0.779068
vt 0.555025 0.779068
vt 0.555025 0.970932
vt 0.432350 0.970932
vt 0.432350 0.279068
vt 0.555025 0.279068
vt 0.555025 0.470932
vt 0.432350 0.470932
vt 0.432350 0.512140
vt 0.555025 0.512140
vt 0.555025 0.737860
vt 0.432350 0.737860
vt 0.432350 0.012140
vt 0.555025 0.012140
vt 0.555025 0.237860
vt 0.432350 0.237860
vt 0.432350 0.779068
vt 0.555025 0.779068
vt 0.555025 0.970932
vt 0.432350 0.970932
vt 0.375000 0.750000
vt 0.625000 0.750000
vt 0.375000 0.500000
vt 0.625000 0.500000
vt 0.148527 0.523527
vt 0.351473 0.523527
vt 0.351473 0.726473
vt 0.148527 0.726473
vt 0.625000 0.250000
vt 0.375000 0.250000
vt 0.125000 0.500000
vt 0.625000 0.000000
vt 0.625000 1.000000
vt 0.375000 0.000000
vt 0.375000 1.000000
vt 0.125000 0.750000
vt 0.375000 0.750000
vt 0.625000 0.750000
vt 0.375000 0.500000
vt 0.625000 0.500000
vt 0.148527 0.523527
vt 0.351473 0.523527
vt 0.351473 0.726473
vt 0.148527 0.726473
vt 0.625000 0.250000
vt 0.375000 0.250000
vt 0.125000 0.500000
vt 0.625000 0.000000
vt 0.625000 1.000000
vt 0.375000 0.000000
vt 0.375000 1.000000
vt 0.125000 0.750000
vt 0.375000 0.750000
vt 0.625000 0.750000
vt 0.375000 0.500000
vt 0.625000 0.500000
vt 0.148527 0.523527
vt 0.351473 0.523527
vt 0.351473 0.726473
vt 0.148527 0.726473
vt 0.625000 0.250000
vt 0.375000 0.250000
vt 0.125000 0.500000
vt 0.625000 0.000000
vt 0.625000 1.000000
vt 0.375000 0.000000
vt 0.375000 1.000000
vt 0.125000 0.750000
vt 0.375000 0.750000
vt 0.625000 0.750000
vt 0.375000 0.500000
vt 0.625000 0.500000
vt 0.148527 0.523527
vt 0.351473 0.523527
vt 0.351473 0.726473
vt 0.148527 0.726473
s 0
usemtl Material
f 5/6/1 7/9/1 12/17/1 11/16/1
f 23/38/2 3/3/2 7/10/2 21/36/2
f 21/35/3 7/9/3 5/6/3 24/39/3
f 8/11/3 6/7/3 2/2/3 4/4/3
f 22/37/4 1/1/4 3/3/4 23/38/4
f 24/39/5 5/6/5 1/1/5 22/37/5
f 9/14/5 11/16/5 15/22/5 13/19/5
f 3/3/6 1/1/6 9/14/6 10/15/6
f 1/1/7 5/6/7 11/16/7 9/14/7
f 7/10/8 3/3/8 10/15/8 12/18/8
f 13/19/9 15/21/9 16/23/9 14/20/9
f 10/15/4 9/14/4 13/19/4 14/20/4
f 11/16/3 12/17/3 16/24/3 15/22/3
f 12/18/2 10/15/2 14/20/2 16/25/2
f 20/33/10 17/26/10 19/31/10 18/28/10
f 41/56/5 42/57/5 43/58/5 44/59/5
f 45/60/4 46/61/4 47/62/4 48/63/4
f 49/64/3 50/65/3 51/66/3 52/67/3
f 53/68/2 54/69/2 55/70/2 56/71/2
f 20/34/5 24/39/5 26/41/5 25/40/5
f 24/39/5 22/37/5 27/42/5 26/41/5
f 22/37/5 17/27/5 28/43/5 27/42/5
f 17/27/5 20/34/5 25/40/5 28/43/5
f 17/27/4 22/37/4 30/45/4 29/44/4
f 22/37/4 23/38/4 31/46/4 30/45/4
f 23/38/4 19/32/4 32/47/4 31/46/4
f 19/32/4 17/27/4 29/44/4 32/47/4
f 18/29/3 21/35/3 34/49/3 33/48/3
f 21/35/3 24/39/3 35/50/3 34/49/3
f 24/39/3 20/34/3 36/51/3 35/50/3
f 20/34/3 18/29/3 33/48/3 36/51/3
f 19/32/2 23/38/2 38/53/2 37/52/2
f 23/38/2 21/36/2 39/54/2 38/53/2
f 21/36/2 18/30/2 40/55/2 39/54/2
f 18/30/2 19/32/2 37/52/2 40/55/2
f 25/40/4 26/41/4 42/57/4 41/56/4
f 26/41/10 27/42/10 43/58/10 42/57/10
f 27/42/3 28/43/3 44/59/3 43/58/3
f 28/43/9 25/40/9 41/56/9 44/59/9
f 29/44/2 30/45/2 46/61/2 45/60/2
f 30/45/10 31/46/10 47/62/10 46/61/10
f 31/46/5 32/47/5 48/63/5 47/62/5
f 32/47/9 29/44/9 45/60/9 48/63/9
f 33/48/5 34/49/5 50/65/5 49/64/5
f 34/49/10 35/50/10 51/66/10 50/65/10
f 35/50/2 36/51/2 52/67/2 51/66/2
f 36/51/9 33/48/9 49/64/9 52/67/9
f 37/52/3 38/53/3 54/69/3 53/68/3
f 38/53/10 39/54/10 55/70/10 54/69/10
f 39/54/4 40/55/4 56/71/4 55/70/4
f 40/55/9 37/52/9 53/68/9 56/71/9
f 4/4/5 2/2/5 60/75/5 59/74/5
f 59/74/4 60/75/4 58/73/4 57/72/4
f 57/72/2 58/73/2 6/8/2 8/12/2
f 61/76/10 62/77/10 63/78/10 64/79/10
f 4/5/11 59/74/11 62/77/11 61/76/11
f 59/74/12 57/72/12 63/78/12 62/77/12
f 57/72/13 8/13/13 64/79/13 63/78/13
f 8/13/14 4/5/14 61/76/14 64/79/14
f 68/85/3 67/83/3 65/80/3 66/81/3
f 66/81/5 65/80/5 72/91/5 71/90/5
f 71/90/4 72/91/4 70/89/4 69/88/4
f 69/88/2 70/89/2 67/84/2 68/86/2
f 73/92/10 74/93/10 75/94/10 76/95/10
f 66/82/11 71/90/11 74/93/11 73/92/11
f 71/90/12 69/88/12 75/94/12 74/93/12
f 69/88/13 68/87/13 76/95/13 75/94/13
f 68/87/14 66/82/14 73/92/14 76/95/14
f 80/101/3 79/99/3 77/96/3 78/97/3
f 78/97/5 77/96/5 84/107/5 83/106/5
f 83/106/4 84/107/4 82/105/4 81/104/4
f 81/104/2 82/105/2 79/100/2 80/102/2
f 85/108/10 86/109/10 87/110/10 88/111/10
f 78/98/11 83/106/11 86/109/11 85/108/11
f 83/106/12 81/104/12 87/110/12 86/109/12
f 81/104/13 80/103/13 88/111/13 87/110/13
f 80/103/14 78/98/14 85/108/14 88/111/14
f 92/117/3 91/115/3 89/112/3 90/113/3
f 90/113/5 89/112/5 96/123/5 95/122/5
f 95/122/4 96/123/4 94/121/4 93/120/4
f 93/120/2 94/121/2 91/116/2 92/118/2
f 97/124/10 98/125/10 99/126/10 100/127/10
f 90/114/11 95/122/11 98/125/11 97/124/11
f 95/122/12 93/120/12 99/126/12 98/125/12
f 93/120/13 92/119/13 100/127/13 99/126/13
f 92/119/14 90/114/14 97/124/14 100/127/14
