# Blender 3.4.1
# www.blender.org
mtllib Wall_01.mtl
o Cube.133
v 2.313191 4.868168 0.089108
v 2.444804 4.999781 -0.257784
v 2.313191 0.131393 0.089107
v 2.444804 -0.000220 -0.257784
v -2.423584 0.131393 0.089107
v -2.555196 -0.000220 -0.257784
v -2.423584 3.148304 0.089108
v -1.368898 4.735855 0.089108
v -1.921820 4.366405 0.089108
v -2.291271 3.813482 0.089108
v -2.555196 3.161266 -0.257784
v -2.415247 3.864835 -0.257784
v -2.016707 4.461292 -0.257784
v -1.420251 4.859832 -0.257784
v -2.555196 -0.000220 0.244064
v -2.423584 0.131393 0.244064
v -2.423584 3.148304 0.244064
v -2.291271 3.813482 0.244064
v -2.555196 -0.000220 0.089107
v -1.368898 4.735855 0.244064
v 2.444804 -0.000220 0.089107
v -1.420251 4.859832 0.089108
v -2.016707 4.461292 0.089108
v -2.415247 3.864835 0.089108
v -2.555196 3.161266 0.089108
v 2.444804 4.999781 0.089108
v -1.921820 4.366405 0.244064
v -0.612831 4.868168 0.089108
v -0.794149 4.850180 0.089108
v -0.625806 4.999781 -0.257784
v -0.807070 4.981801 -0.257784
v -0.625817 -0.000220 -0.257784
v -0.807162 -0.000220 -0.257784
v -0.807143 0.131393 0.089107
v -0.625814 0.131393 0.089107
v -2.555196 3.161266 0.244064
v -2.415247 3.864835 0.244064
v -1.420251 4.859832 0.244064
v -2.016707 4.461292 0.244064
v -0.625817 -0.000220 0.089107
v -0.807166 -0.000220 0.089107
v -0.807048 4.981806 0.089108
v -0.625794 4.999781 0.089108
v 2.444804 2.502768 -0.257784
v 2.444804 2.752018 -0.257784
v -2.423584 2.502769 0.089108
v -2.423584 2.752019 0.089108
v -2.555196 2.752018 -0.257784
v -2.555196 2.502768 -0.257784
v 2.313191 2.752018 0.089108
v 2.313191 2.502768 0.089108
v 2.444804 2.752018 0.089108
v 2.444804 2.502768 0.089108
v -2.555196 2.502769 0.089108
v -2.555196 2.752019 0.089108
v -0.625813 2.752018 -0.257784
v -0.625814 2.502768 -0.257784
v -0.807132 2.502768 -0.257784
v -0.807128 2.752018 -0.257784
v -0.806365 2.752019 0.089108
v -0.807094 2.502768 0.089108
v -0.625806 2.502768 0.089108
v -0.625084 2.752018 0.089108
v 2.313191 0.131393 0.244064
v 2.444804 -0.000220 0.244064
v 2.313191 4.868168 0.244064
v 2.444804 4.999781 0.244064
v -0.807048 4.981806 0.244064
v -0.625794 4.999781 0.244064
v -0.625817 -0.000220 0.244064
v -0.807166 -0.000220 0.244064
v -0.612831 4.868168 0.244064
v -0.794149 4.850180 0.244064
v -0.807143 0.131393 0.244064
v -0.625814 0.131393 0.244064
v 2.444804 2.752018 0.244064
v 2.444804 2.502768 0.244064
v -2.555196 2.502769 0.244064
v -2.555196 2.752019 0.244064
v 2.313191 2.752018 0.244064
v 2.313191 2.502768 0.244064
v -2.423584 2.502769 0.244064
v -2.423584 2.752019 0.244064
v -0.806365 2.752019 0.244064
v -0.807094 2.502768 0.244064
v -0.625806 2.502768 0.244064
v -0.625084 2.752018 0.244064
vn 1.0000 -0.0000 -0.0000
vn -1.0000 -0.0000 -0.0000
vn -0.0000 1.0000 -0.0000
vn -0.0000 -0.0000 -1.0000
vn -0.5556 0.8315 -0.0000
vn -0.8315 0.5556 -0.0000
vn -0.9808 0.1951 -0.0000
vn -0.1951 0.9808 -0.0000
vn -0.0000 -0.0000 1.0000
vn -0.0000 -1.0000 -0.0000
vn 0.9808 -0.1951 -0.0000
vn -0.0987 0.9951 -0.0000
vn 0.8315 -0.5556 -0.0000
vn 0.5556 -0.8315 -0.0000
vn 0.1951 -0.9808 -0.0000
vn 1.0000 -0.0058 -0.0000
vn -1.0000 0.0058 -0.0000
vt 0.631581 0.506581
vt 0.375000 0.500000
vt 0.631581 0.743419
vt 0.375000 0.750000
vt 0.868419 0.743419
vt 0.375000 1.000000
vt 0.125000 0.750000
vt 0.375000 0.000000
vt 0.868419 0.592574
vt 0.815685 0.513196
vt 0.843331 0.531669
vt 0.861804 0.559315
vt 0.125000 0.591926
vt 0.375000 0.158074
vt 0.131997 0.556747
vt 0.375000 0.193253
vt 0.151924 0.526924
vt 0.375000 0.250000
vt 0.181747 0.506998
vt 0.375000 0.306747
vt 0.625000 0.000000
vt 0.875000 0.750000
vt 0.625000 1.000000
vt 0.868419 0.743419
vt 0.868419 0.592574
vt 0.861804 0.559315
vt 0.625000 0.000000
vt 0.625000 1.000000
vt 0.815685 0.513196
vt 0.625000 0.750000
vt 0.625000 0.306747
vt 0.625000 0.250000
vt 0.625000 0.193253
vt 0.625000 0.158074
vt 0.625000 0.500000
vt 0.843331 0.531669
vt 0.777882 0.506581
vt 0.786948 0.507480
vt 0.375000 0.346469
vt 0.221469 0.500000
vt 0.212406 0.500899
vt 0.375000 0.337406
vt 0.221469 0.750000
vt 0.375000 0.903531
vt 0.212402 0.750000
vt 0.375000 0.912598
vt 0.787597 0.743419
vt 0.778531 0.743419
vt 0.625000 0.158074
vt 0.875000 0.591926
vt 0.868003 0.556747
vt 0.625000 0.193253
vt 0.818253 0.506997
vt 0.625000 0.306747
vt 0.848076 0.526924
vt 0.625000 0.250000
vt 0.625000 0.903531
vt 0.625000 0.912598
vt 0.625000 0.337407
vt 0.625000 0.346470
vt 0.375000 0.624761
vt 0.375000 0.612299
vt 0.868419 0.624761
vt 0.868419 0.612298
vt 0.375000 0.137702
vt 0.125000 0.612298
vt 0.375000 0.125239
vt 0.125000 0.624761
vt 0.631581 0.612298
vt 0.631581 0.624761
vt 0.625000 0.612298
vt 0.625000 0.624761
vt 0.625000 0.125239
vt 0.625000 0.137702
vt 0.221469 0.612298
vt 0.221469 0.624761
vt 0.212403 0.624761
vt 0.212403 0.612298
vt 0.787559 0.612298
vt 0.787595 0.624761
vt 0.778531 0.624761
vt 0.778494 0.612298
vt 0.631581 0.743419
vt 0.625000 0.750000
vt 0.631581 0.506581
vt 0.625000 0.500000
vt 0.625000 0.337407
vt 0.787593 0.500899
vt 0.625000 0.346470
vt 0.778530 0.500000
vt 0.778531 0.750000
vt 0.625000 0.903531
vt 0.787599 0.750000
vt 0.625000 0.912598
vt 0.777882 0.506581
vt 0.786948 0.507480
vt 0.787597 0.743419
vt 0.778531 0.743419
vt 0.625000 0.612298
vt 0.625000 0.624761
vt 0.625000 0.125239
vt 0.875000 0.624761
vt 0.625000 0.137702
vt 0.875000 0.612298
vt 0.631581 0.612298
vt 0.631581 0.624761
vt 0.868419 0.624761
vt 0.868419 0.612298
vt 0.787559 0.612298
vt 0.787595 0.624761
vt 0.778531 0.624761
vt 0.778494 0.612298
s 0
usemtl Material
f 44/61/1 53/72/1 21/30/1 4/4/1
f 55/74/2 54/73/2 78/101/2 79/103/2
f 30/39/3 43/60/3 26/35/3 2/2/3
f 32/43/4 57/76/4 44/61/4 4/4/4
f 11/13/4 12/15/4 13/17/4 14/19/4 31/41/4 59/78/4 48/66/4
f 2/2/1 26/35/1 52/71/1 45/62/1
f 22/31/5 14/20/5 13/18/5 23/32/5
f 23/32/6 13/18/6 12/16/6 24/33/6
f 24/33/7 12/16/7 11/14/7 25/34/7
f 42/59/8 31/42/8 14/20/8 22/31/8
f 47/64/9 60/79/9 29/38/9 8/10/9 9/11/9 10/12/9 7/9/9
f 53/72/1 52/71/1 76/99/1 77/100/1
f 33/46/10 41/58/10 19/28/10 6/6/10
f 48/65/2 55/74/2 25/34/2 11/14/2
f 49/68/4 58/77/4 33/45/4 6/7/4
f 4/4/10 21/30/10 40/57/10 32/44/10
f 42/59/8 22/31/8 38/54/8 68/87/8
f 54/73/2 19/27/2 15/21/2 78/101/2
f 7/9/11 10/12/11 18/26/11 17/25/11
f 30/40/4 56/75/4 59/78/4 31/41/4
f 1/1/9 28/37/9 63/82/9 50/69/9
f 26/35/3 43/60/3 69/89/3 67/86/3
f 43/60/12 42/59/12 68/87/12 69/89/12
f 24/33/7 25/34/7 36/49/7 37/52/7
f 5/5/1 46/63/1 82/107/1 16/24/1
f 10/12/13 9/11/13 27/36/13 18/26/13
f 34/47/9 61/80/9 46/63/9 5/5/9
f 6/8/2 19/27/2 54/73/2 49/67/2
f 51/70/9 62/81/9 35/48/9 3/3/9
f 43/60/12 30/39/12 31/42/12 42/59/12
f 57/76/4 32/43/4 33/45/4 58/77/4
f 28/37/10 1/1/10 66/85/10 72/95/10
f 32/44/10 40/57/10 41/58/10 33/46/10
f 3/3/3 35/48/3 75/98/3 64/83/3
f 81/106/9 64/83/9 65/84/9 77/100/9
f 61/80/2 34/47/2 74/97/2 85/110/2
f 9/11/14 8/10/14 20/29/14 27/36/14
f 8/10/15 29/38/15 73/96/15 20/29/15
f 45/62/1 52/71/1 53/72/1 44/61/1
f 55/74/2 48/65/2 49/67/2 54/73/2
f 50/69/3 63/82/3 87/112/3 80/105/3
f 34/47/3 5/5/3 16/24/3 74/97/3
f 57/76/4 58/77/4 59/78/4 56/75/4
f 41/58/10 40/57/10 70/92/10 71/94/10
f 25/34/2 55/74/2 79/103/2 36/49/2
f 62/81/10 51/70/10 81/106/10 86/111/10
f 44/61/4 57/76/4 56/75/4 45/62/4
f 58/77/4 49/68/4 48/66/4 59/78/4
f 45/62/4 56/75/4 30/40/4 2/2/4
f 16/24/9 82/107/9 78/102/9 15/22/9
f 64/83/9 75/98/9 70/91/9 65/84/9
f 74/97/9 16/24/9 15/22/9 71/93/9
f 72/95/9 66/85/9 67/86/9 69/90/9
f 66/85/9 80/105/9 76/99/9 67/86/9
f 27/36/9 20/29/9 38/53/9 39/55/9
f 18/26/9 27/36/9 39/55/9 37/51/9
f 17/25/9 18/26/9 37/51/9 36/50/9
f 20/29/9 73/96/9 68/88/9 38/53/9
f 73/96/9 84/109/9 87/112/9 72/95/9
f 85/110/9 74/97/9 75/98/9 86/111/9
f 70/91/9 75/98/9 74/97/9 71/93/9
f 72/95/9 69/90/9 68/88/9 73/96/9
f 83/108/9 17/25/9 36/50/9 79/104/9
f 76/99/9 80/105/9 81/106/9 77/100/9
f 78/102/9 82/107/9 83/108/9 79/104/9
f 85/110/9 86/111/9 87/112/9 84/109/9
f 82/107/9 85/110/9 84/109/9 83/108/9
f 86/111/9 81/106/9 80/105/9 87/112/9
f 52/71/1 26/35/1 67/86/1 76/99/1
f 51/70/2 3/3/2 64/83/2 81/106/2
f 1/1/2 50/69/2 80/105/2 66/85/2
f 22/31/5 23/32/5 39/56/5 38/54/5
f 63/82/16 28/37/16 72/95/16 87/112/16
f 21/30/1 53/72/1 77/100/1 65/84/1
f 46/63/10 61/80/10 85/110/10 82/107/10
f 35/48/1 62/81/1 86/111/1 75/98/1
f 47/64/1 7/9/1 17/25/1 83/108/1
f 19/28/10 41/58/10 71/94/10 15/23/10
f 60/79/3 47/64/3 83/108/3 84/109/3
f 29/38/17 60/79/17 84/109/17 73/96/17
f 23/32/6 24/33/6 37/52/6 39/56/6
f 40/57/10 21/30/10 65/84/10 70/92/10
