# Blender 3.4.1
# www.blender.org
mtllib Wall_02.mtl
o Cube.175
v -0.357229 5.192427 2.507910
v 0.332298 5.192427 2.507909
v -0.357229 5.001207 2.507910
v 0.332298 5.001207 2.507909
v -0.357232 5.192427 -2.502105
v 0.332295 5.192427 -2.502105
v -0.357232 5.001207 -2.502105
v 0.332295 5.001207 -2.502105
v 0.185913 5.002412 -2.502902
v -0.160979 5.002412 -2.502902
v 0.185913 0.002412 -2.502902
v -0.160979 0.002412 -2.502902
v 0.185913 5.002412 2.497098
v -0.160978 5.002412 2.497098
v 0.185913 0.002412 2.497098
v -0.160979 0.002412 2.497098
vn -1.0000 -0.0000 -0.0000
vn -0.0000 -1.0000 -0.0000
vn -0.0000 -0.0000 -1.0000
vn 1.0000 -0.0000 -0.0000
vn -0.0000 -0.0000 1.0000
vn -0.0000 1.0000 -0.0000
vt 0.625000 0.500000
vt 0.375000 0.500000
vt 0.625000 0.750000
vt 0.375000 0.750000
vt 0.875000 0.500000
vt 0.625000 0.250000
vt 0.125000 0.500000
vt 0.375000 0.250000
vt 0.875000 0.750000
vt 0.625000 1.000000
vt 0.625000 0.000000
vt 0.375000 1.000000
vt 0.375000 0.000000
vt 0.125000 0.750000
vt 0.625000 0.500000
vt 0.375000 0.500000
vt 0.625000 0.750000
vt 0.375000 0.750000
vt 0.875000 0.500000
vt 0.625000 0.250000
vt 0.125000 0.500000
vt 0.375000 0.250000
vt 0.875000 0.750000
vt 0.625000 1.000000
vt 0.625000 0.000000
vt 0.375000 1.000000
vt 0.375000 0.000000
vt 0.125000 0.750000
s 0
usemtl Material
f 1/1/1 5/5/1 7/9/1 3/3/1
f 4/4/2 3/3/2 7/10/2 8/12/2
f 8/13/3 7/11/3 5/6/3 6/8/3
f 6/7/4 2/2/4 4/4/4 8/14/4
f 2/2/5 1/1/5 3/3/5 4/4/5
f 6/8/6 5/6/6 1/1/6 2/2/6
f 9/15/4 13/19/4 15/23/4 11/17/4
f 12/18/2 11/17/2 15/24/2 16/26/2
f 16/27/5 15/25/5 13/20/5 14/22/5
f 14/21/1 10/16/1 12/18/1 16/28/1
f 10/16/3 9/15/3 11/17/3 12/18/3
f 14/22/6 13/20/6 9/15/6 10/16/6
