# Blender 3.4.1
# www.blender.org
mtllib Grass_02.mtl
o Cube
v 0.085084 0.903091 -0.085084
v 0.133690 0.057010 -0.133690
v 0.085084 0.903091 0.085084
v 0.133690 0.057010 0.133690
v -0.085084 0.903091 -0.085084
v -0.133690 0.057010 -0.133690
v -0.085084 0.903091 0.085084
v -0.133690 0.057010 0.133690
v 0.190592 0.422963 -0.190592
v -0.190592 0.422962 0.190592
v 0.190592 0.422963 0.190592
v -0.190592 0.422963 -0.190592
v -0.150412 0.041437 -0.078770
v -0.158593 0.033614 0.000000
v -0.150412 0.041437 0.078770
v 0.078770 0.041437 -0.150412
v 0.000000 0.033614 -0.158593
v -0.078770 0.041437 -0.150412
v 0.194605 0.291487 -0.194605
v 0.183344 0.182989 -0.183344
v 0.159471 0.102832 -0.159471
v -0.171224 0.569053 0.171223
v -0.142108 0.711355 0.142108
v -0.110268 0.829751 0.110268
v 0.194605 0.291487 0.194605
v 0.183344 0.182989 0.183344
v 0.159471 0.102832 0.159471
v -0.194605 0.291487 -0.194605
v -0.183344 0.182989 -0.183344
v -0.159471 0.102832 -0.159471
v 0.049311 0.928656 0.091561
v 0.000000 0.941498 0.094347
v -0.049311 0.928656 0.091561
v 0.091561 0.928656 -0.049311
v 0.094347 0.941498 -0.000000
v 0.091561 0.928656 0.049311
v -0.078770 0.041437 0.150412
v 0.000000 0.033614 0.158593
v 0.078770 0.041437 0.150412
v -0.091561 0.928656 0.049311
v -0.094347 0.941498 0.000000
v -0.091561 0.928656 -0.049311
v -0.049310 0.928656 -0.091561
v -0.000000 0.941498 -0.094347
v 0.049311 0.928656 -0.091561
v 0.150412 0.041437 0.078770
v 0.158593 0.033614 0.000000
v 0.150412 0.041437 -0.078770
v 0.110268 0.829751 -0.110268
v 0.142108 0.711355 -0.142108
v 0.171224 0.569053 -0.171224
v -0.159471 0.102832 0.159471
v -0.183344 0.182989 0.183344
v -0.194605 0.291487 0.194605
v 0.110268 0.829751 0.110268
v 0.142108 0.711355 0.142108
v 0.171224 0.569053 0.171224
v -0.110268 0.829751 -0.110268
v -0.142108 0.711355 -0.142108
v -0.171224 0.569053 -0.171224
v -0.104230 0.422963 -0.244197
v 0.000000 0.422963 -0.262065
v 0.104230 0.422963 -0.244197
v 0.244197 0.422963 -0.104230
v 0.262065 0.422963 0.000000
v 0.244197 0.422963 0.104230
v -0.244196 0.422962 0.104230
v -0.262065 0.422962 0.000000
v -0.244197 0.422963 -0.104230
v 0.104230 0.422963 0.244197
v -0.000000 0.422962 0.262065
v -0.104230 0.422962 0.244196
v 0.046194 0.983359 -0.046194
v 0.000000 1.001881 -0.046312
v -0.046194 0.983359 -0.046194
v 0.046312 1.001881 -0.000000
v -0.000000 1.022099 -0.000000
v -0.046312 1.001881 -0.000000
v 0.046194 0.983359 0.046194
v -0.000000 1.001881 0.046312
v -0.046194 0.983359 0.046194
v 0.093676 0.569290 0.219237
v 0.078019 0.713248 0.180927
v 0.061466 0.836826 0.136834
v -0.000000 0.569527 0.235196
v 0.000000 0.715141 0.193507
v 0.000000 0.843016 0.144708
v -0.093676 0.569290 0.219237
v -0.078019 0.713248 0.180927
v -0.061466 0.836826 0.136834
v -0.219237 0.569290 0.093676
v -0.180927 0.713248 0.078019
v -0.136834 0.836826 0.061466
v -0.235196 0.569527 0.000000
v -0.193507 0.715141 0.000000
v -0.144708 0.843016 0.000000
v -0.219237 0.569290 -0.093676
v -0.180927 0.713248 -0.078019
v -0.136834 0.836826 -0.061466
v -0.080972 0.008115 -0.080972
v -0.000000 -0.003167 -0.084215
v 0.080972 0.008115 -0.080972
v -0.084215 -0.003167 0.000000
v 0.000000 -0.015482 -0.000000
v 0.084215 -0.003167 -0.000000
v -0.080972 0.008115 0.080972
v 0.000000 -0.003167 0.084215
v 0.080972 0.008115 0.080972
v 0.219237 0.569290 -0.093676
v 0.180927 0.713248 -0.078019
v 0.136834 0.836826 -0.061466
v 0.235196 0.569527 -0.000000
v 0.193507 0.715141 0.000000
v 0.144708 0.843016 -0.000000
v 0.219237 0.569290 0.093676
v 0.180927 0.713248 0.078019
v 0.136834 0.836826 0.061466
v -0.093676 0.569290 -0.219237
v -0.078019 0.713248 -0.180927
v -0.061466 0.836826 -0.136834
v -0.000000 0.569527 -0.235196
v -0.000000 0.715141 -0.193507
v -0.000000 0.843016 -0.144708
v 0.093676 0.569290 -0.219237
v 0.078019 0.713248 -0.180927
v 0.061466 0.836826 -0.136834
v -0.088290 0.098522 -0.201276
v -0.100388 0.181836 -0.234449
v -0.106440 0.291343 -0.249280
v 0.000000 0.094752 -0.214902
v 0.000000 0.180683 -0.251339
v -0.000000 0.291199 -0.267487
v 0.088290 0.098522 -0.201276
v 0.100388 0.181836 -0.234449
v 0.106440 0.291343 -0.249280
v 0.201276 0.098522 -0.088290
v 0.234449 0.181836 -0.100388
v 0.249280 0.291343 -0.106440
v 0.214902 0.094752 0.000000
v 0.251339 0.180683 0.000000
v 0.267487 0.291199 -0.000000
v 0.201276 0.098522 0.088290
v 0.234449 0.181836 0.100388
v 0.249280 0.291343 0.106440
v -0.201276 0.098522 0.088290
v -0.234449 0.181836 0.100388
v -0.249280 0.291343 0.106440
v -0.214902 0.094752 -0.000000
v -0.251339 0.180683 0.000000
v -0.267487 0.291199 0.000000
v -0.201276 0.098522 -0.088290
v -0.234449 0.181836 -0.100388
v -0.249280 0.291343 -0.106440
v 0.088290 0.098522 0.201276
v 0.100388 0.181836 0.234449
v 0.106440 0.291343 0.249280
v -0.000000 0.094752 0.214902
v -0.000000 0.180683 0.251339
v -0.000000 0.291199 0.267487
v -0.088290 0.098522 0.201276
v -0.100388 0.181836 0.234449
v -0.106440 0.291343 0.249280
vn 0.5004 0.7065 -0.5004
vn -0.0000 0.8200 -0.5723
vn -0.0000 1.0000 -0.0000
vn 0.5723 0.8200 -0.0000
vn -0.5004 0.7065 -0.5004
vn -0.5723 0.8200 -0.0000
vn -0.0000 0.8200 0.5723
vn 0.5004 0.7065 0.5004
vn -0.5004 0.7065 0.5004
vn 0.6225 0.4743 -0.6225
vn 0.3680 0.5354 -0.7602
vn 0.7602 0.5354 -0.3680
vn -0.0000 0.5585 -0.8295
vn -0.3680 0.5354 -0.7602
vn -0.6225 0.4743 -0.6225
vn -0.7602 0.5354 -0.3680
vn -0.8295 0.5585 -0.0000
vn -0.7602 0.5354 0.3680
vn -0.6225 0.4743 0.6225
vn -0.3680 0.5354 0.7602
vn -0.0000 0.5585 0.8295
vn 0.3680 0.5354 0.7602
vn 0.7602 0.5354 0.3680
vn 0.6225 0.4743 0.6225
vn 0.8295 0.5585 -0.0000
vn 0.3445 0.2280 0.9107
vn 0.3338 0.3147 0.8886
vn -0.0000 0.3147 0.9492
vn -0.0000 0.2265 0.9740
vn 0.3217 0.4008 0.8578
vn -0.0000 0.4084 0.9128
vn -0.3338 0.3147 0.8886
vn -0.3445 0.2280 0.9107
vn -0.3217 0.4008 0.8578
vn 0.7026 0.1129 0.7026
vn 0.6881 0.2303 0.6881
vn 0.3526 0.1113 0.9291
vn 0.6709 0.3159 0.6709
vn 0.6496 0.3949 0.6496
vn -0.6496 0.3949 0.6496
vn -0.6709 0.3159 0.6709
vn -0.6881 0.2303 0.6881
vn -0.3526 0.1113 0.9291
vn -0.7026 0.1129 0.7026
vn -0.0000 0.1102 0.9939
vn -0.9107 0.2280 0.3445
vn -0.8886 0.3147 0.3338
vn -0.9492 0.3147 -0.0000
vn -0.9740 0.2265 -0.0000
vn -0.8578 0.4008 0.3217
vn -0.9128 0.4084 -0.0000
vn -0.8886 0.3147 -0.3338
vn -0.9107 0.2280 -0.3445
vn -0.8578 0.4008 -0.3217
vn -0.9291 0.1113 0.3526
vn -0.6496 0.3949 -0.6496
vn -0.6709 0.3159 -0.6709
vn -0.6881 0.2303 -0.6881
vn -0.9291 0.1113 -0.3526
vn -0.7026 0.1129 -0.7026
vn -0.9939 0.1102 -0.0000
vn -0.2779 -0.9196 -0.2779
vn -0.0000 -0.9554 -0.2953
vn -0.0000 -1.0000 -0.0000
vn -0.2953 -0.9554 -0.0000
vn 0.2779 -0.9196 -0.2779
vn 0.2953 -0.9554 -0.0000
vn -0.0000 -0.9554 0.2953
vn -0.2779 -0.9196 0.2779
vn 0.2779 -0.9196 0.2779
vn -0.4956 -0.7133 -0.4956
vn -0.2646 -0.7767 -0.5716
vn -0.5716 -0.7767 -0.2646
vn -0.0000 -0.8001 -0.5999
vn 0.2646 -0.7767 -0.5716
vn 0.4956 -0.7133 -0.4956
vn 0.5716 -0.7767 -0.2646
vn 0.5999 -0.8001 -0.0000
vn 0.5716 -0.7767 0.2646
vn 0.4956 -0.7133 0.4956
vn 0.2646 -0.7767 0.5716
vn -0.0000 -0.8001 0.5999
vn -0.2646 -0.7767 0.5716
vn -0.5716 -0.7767 0.2646
vn -0.4956 -0.7133 0.4956
vn -0.5999 -0.8001 -0.0000
vn 0.9107 0.2280 -0.3445
vn 0.8886 0.3147 -0.3338
vn 0.9492 0.3147 -0.0000
vn 0.9740 0.2265 -0.0000
vn 0.8578 0.4008 -0.3217
vn 0.9128 0.4084 -0.0000
vn 0.8886 0.3147 0.3338
vn 0.9107 0.2280 0.3445
vn 0.8578 0.4008 0.3217
vn 0.7026 0.1129 -0.7026
vn 0.6881 0.2303 -0.6881
vn 0.9291 0.1113 -0.3526
vn 0.6709 0.3159 -0.6709
vn 0.6496 0.3949 -0.6496
vn 0.9291 0.1113 0.3526
vn 0.9939 0.1102 -0.0000
vn -0.3445 0.2280 -0.9107
vn -0.3338 0.3147 -0.8886
vn -0.0000 0.3147 -0.9492
vn -0.0000 0.2265 -0.9740
vn -0.3217 0.4008 -0.8578
vn -0.0000 0.4084 -0.9128
vn 0.3338 0.3147 -0.8886
vn 0.3445 0.2280 -0.9107
vn 0.3217 0.4008 -0.8578
vn -0.3526 0.1113 -0.9291
vn 0.3526 0.1113 -0.9291
vn -0.0000 0.1102 -0.9939
vn -0.3017 -0.5227 -0.7974
vn -0.3413 -0.2653 -0.9017
vn -0.0000 -0.2666 -0.9638
vn -0.0000 -0.5378 -0.8431
vn -0.3541 -0.0510 -0.9338
vn -0.0000 -0.0511 -0.9987
vn 0.3413 -0.2653 -0.9017
vn 0.3017 -0.5227 -0.7974
vn 0.3541 -0.0510 -0.9338
vn -0.6091 -0.5078 -0.6091
vn -0.6819 -0.2646 -0.6819
vn -0.7062 -0.0509 -0.7062
vn 0.7062 -0.0509 -0.7062
vn 0.6819 -0.2646 -0.6819
vn 0.6091 -0.5078 -0.6091
vn 0.7974 -0.5227 -0.3017
vn 0.9017 -0.2653 -0.3413
vn 0.9638 -0.2666 -0.0000
vn 0.8431 -0.5378 -0.0000
vn 0.9338 -0.0510 -0.3541
vn 0.9987 -0.0511 -0.0000
vn 0.9017 -0.2653 0.3413
vn 0.7974 -0.5227 0.3017
vn 0.9338 -0.0510 0.3541
vn 0.7062 -0.0509 0.7062
vn 0.6819 -0.2646 0.6819
vn 0.6091 -0.5078 0.6091
vn -0.7974 -0.5227 0.3017
vn -0.9017 -0.2653 0.3413
vn -0.9638 -0.2666 -0.0000
vn -0.8431 -0.5378 -0.0000
vn -0.9338 -0.0510 0.3541
vn -0.9987 -0.0511 -0.0000
vn -0.9017 -0.2653 -0.3413
vn -0.7974 -0.5227 -0.3017
vn -0.9338 -0.0510 -0.3541
vn -0.6091 -0.5078 0.6091
vn -0.6819 -0.2646 0.6819
vn -0.7062 -0.0509 0.7062
vn 0.3017 -0.5227 0.7974
vn 0.3413 -0.2653 0.9017
vn -0.0000 -0.2666 0.9638
vn -0.0000 -0.5378 0.8431
vn 0.3541 -0.0510 0.9338
vn -0.0000 -0.0511 0.9987
vn -0.3413 -0.2653 0.9017
vn -0.3017 -0.5227 0.7974
vn -0.3541 -0.0510 0.9338
vt 0.954185 0.518386
vt 0.603626 0.525010
vt 0.571616 0.658527
vt 0.256841 0.540667
vt 0.847542 0.525010
vt 0.740416 0.664284
vt 0.187891 0.003568
vt 0.358916 0.557134
vt 0.710269 0.518386
vt 0.562074 0.827155
vt 0.151638 0.559448
vt 0.465742 0.554197
vt 0.730873 0.832912
vt 0.477384 0.012816
vt 0.022589 0.033078
vt 0.517199 0.215821
vt 1.000000 0.200983
vt 0.512169 0.245048
vt 0.021146 0.270122
vt 0.761114 0.215821
vt 0.256806 0.228051
vt 0.756085 0.200983
vt 0.272874 0.251627
vt 0.597553 0.840422
vt 0.341813 0.006415
vt 0.647696 0.848050
vt 0.390185 0.000000
vt 0.697010 0.843814
vt 0.440712 0.003696
vt 0.560504 0.694342
vt 0.553235 0.744616
vt 0.554882 0.793697
vt 0.512169 0.133185
vt 1.000000 0.118035
vt 0.518935 0.066181
vt 0.992651 0.051908
vt 0.535585 0.017948
vt 0.552126 0.637186
vt 0.979379 0.005533
vt 0.051494 0.359688
vt 0.504550 0.338799
vt 0.088586 0.445698
vt 0.491891 0.430372
vt 0.125042 0.516344
vt 0.477467 0.506750
vt 0.756085 0.133185
vt 0.244315 0.144946
vt 0.762851 0.066181
vt 0.226698 0.077827
vt 0.753477 0.644053
vt 0.205879 0.029803
vt 0.756085 0.118035
vt 0.267836 0.167726
vt 0.748736 0.051908
vt 0.274528 0.098346
vt 0.735463 0.005533
vt 0.291052 0.046937
vt 0.540744 0.838331
vt 0.236789 0.560761
vt 0.207396 0.574309
vt 0.474384 0.570676
vt 0.175819 0.571645
vt 0.931366 0.535002
vt 0.900321 0.544625
vt 0.267836 0.555678
vt 0.869561 0.538841
vt 0.744795 0.800174
vt 0.052875 0.017387
vt 0.753477 0.751445
vt 0.099756 0.003854
vt 0.750418 0.700818
vt 0.150271 0.000000
vt 0.442927 0.571088
vt 0.411846 0.580117
vt 0.719102 0.538451
vt 0.381016 0.572790
vt 0.687451 0.535003
vt 0.656405 0.544625
vt 0.963017 0.538451
vt 0.625646 0.538841
vt 0.707746 0.654094
vt 0.659016 0.648012
vt 0.608289 0.650702
vt 0.965756 0.468457
vt 0.583632 0.477041
vt 0.979989 0.389259
vt 0.557958 0.400322
vt 0.992481 0.295530
vt 0.533957 0.308859
vt 0.491273 0.041433
vt 0.008700 0.065003
vt 0.504722 0.092018
vt 0.000000 0.118298
vt 0.512169 0.161009
vt 0.003694 0.187902
vt 0.261384 0.492004
vt 0.827547 0.477041
vt 0.264296 0.414330
vt 0.801874 0.400322
vt 0.263205 0.321893
vt 0.777872 0.308859
vt 0.339022 0.510556
vt 0.721840 0.468457
vt 0.313470 0.435277
vt 0.736074 0.389259
vt 0.289573 0.344709
vt 0.748566 0.295530
vt 0.695400 0.197882
vt 0.627892 0.199785
vt 0.564759 0.205997
vt 0.939315 0.197882
vt 0.871808 0.199785
vt 0.808675 0.205997
vt 0.451695 0.246136
vt 0.384177 0.247801
vt 0.320831 0.249734
vt 0.197165 0.238115
vt 0.130644 0.249796
vt 0.068288 0.261122
vt 0.633995 0.578435
vt 0.935809 0.574839
vt 0.941823 0.591998
vt 0.663215 0.588218
vt 0.691894 0.574839
vt 0.389122 0.608001
vt 0.907130 0.588218
vt 0.669196 0.606458
vt 0.913111 0.606458
vt 0.424119 0.632284
vt 0.697908 0.591999
vt 0.418397 0.619028
vt 0.246186 0.595064
vt 0.877910 0.578435
vt 0.883777 0.595604
vt 0.452877 0.618576
vt 0.219657 0.611815
vt 0.447121 0.606407
vt 0.189068 0.605261
vt 0.209691 0.331078
vt 0.220358 0.422980
vt 0.228897 0.502104
vt 0.149944 0.341724
vt 0.170867 0.432907
vt 0.190661 0.512860
vt 0.093865 0.351755
vt 0.123890 0.440202
vt 0.152896 0.515672
vt 0.450266 0.339928
vt 0.447155 0.432395
vt 0.443840 0.511909
vt 0.389600 0.341576
vt 0.396738 0.434856
vt 0.404430 0.516863
vt 0.332653 0.343161
vt 0.349200 0.435088
vt 0.366667 0.514031
vt 0.601648 0.799873
vt 0.603509 0.749852
vt 0.607428 0.697740
vt 0.653669 0.804776
vt 0.657786 0.752882
vt 0.659680 0.698553
vt 0.703885 0.803360
vt 0.709840 0.753478
vt 0.709665 0.701227
vt 0.938009 0.292908
vt 0.935102 0.388259
vt 0.932029 0.471583
vt 0.877353 0.294779
vt 0.884697 0.390964
vt 0.892640 0.476901
vt 0.820597 0.300201
vt 0.837314 0.394332
vt 0.854988 0.476368
vt 0.694093 0.292908
vt 0.691187 0.388259
vt 0.688113 0.471583
vt 0.633437 0.294779
vt 0.640782 0.390964
vt 0.648724 0.476901
vt 0.576681 0.300201
vt 0.593399 0.394332
vt 0.611072 0.476368
vt 0.685671 0.000567
vt 0.517281 0.792966
vt 0.690474 0.048254
vt 0.694137 0.114785
vt 0.628614 0.000000
vt 0.512169 0.737363
vt 0.625476 0.049403
vt 0.625200 0.116643
vt 0.575010 0.007440
vt 0.523582 0.681603
vt 0.564649 0.056069
vt 0.560726 0.123072
vt 0.929586 0.000566
vt 0.598944 0.612779
vt 0.934390 0.048254
vt 0.938052 0.114785
vt 0.872530 0.000000
vt 0.655509 0.606458
vt 0.869392 0.049403
vt 0.869116 0.116643
vt 0.818925 0.007440
vt 0.239547 0.021771
vt 0.710420 0.616580
vt 0.808564 0.056069
vt 0.267835 0.070638
vt 0.804642 0.123072
vt 0.441639 0.039596
vt 0.446661 0.092330
vt 0.450436 0.162028
vt 0.384564 0.038610
vt 0.381650 0.093199
vt 0.381488 0.163637
vt 0.584578 0.866655
vt 0.330788 0.042644
vt 0.320620 0.095795
vt 0.316797 0.165702
vt 0.156524 0.035363
vt 0.169327 0.086765
vt 0.183419 0.155128
vt 0.099936 0.042871
vt 0.105168 0.097287
vt 0.115477 0.166966
vt 0.047357 0.054852
vt 0.045201 0.108924
vt 0.051810 0.178623
s 1
usemtl Material
f 73/121/1 74/122/2 77/128/3 76/126/4
f 74/123/2 75/124/5 78/130/6 77/127/3
f 76/126/4 77/128/3 80/134/7 79/133/8
f 77/129/3 78/131/6 81/137/9 80/135/7
f 1/1/10 45/79/11 73/121/1 34/63/12
f 45/80/11 44/78/13 74/123/2 73/120/1
f 44/78/13 43/77/14 75/124/5 74/123/2
f 43/77/14 5/9/15 42/75/16 75/124/5
f 75/125/5 42/76/16 41/74/17 78/131/6
f 78/131/6 41/74/17 40/73/18 81/137/9
f 81/137/9 40/73/18 7/12/19 33/61/20
f 80/136/7 81/138/9 33/62/20 32/60/21
f 79/132/8 80/136/7 32/60/21 31/59/22
f 36/65/23 79/132/8 31/59/22 3/4/24
f 35/64/25 76/126/4 79/133/8 36/66/23
f 34/63/12 73/121/1 76/126/4 35/64/25
f 82/139/26 83/140/27 86/143/28 85/142/29
f 83/140/27 84/141/30 87/144/31 86/143/28
f 85/142/29 86/143/28 89/146/32 88/145/33
f 86/143/28 87/144/31 90/147/34 89/146/32
f 11/21/35 57/100/36 82/139/26 70/117/37
f 57/100/36 56/98/38 83/140/27 82/139/26
f 56/98/38 55/96/39 84/141/30 83/140/27
f 55/96/39 3/4/24 31/59/22 84/141/30
f 84/141/30 31/59/22 32/60/21 87/144/31
f 87/144/31 32/60/21 33/62/20 90/147/34
f 90/147/34 33/62/20 7/11/19 24/44/40
f 89/146/32 90/147/34 24/44/40 23/42/41
f 88/145/33 89/146/32 23/42/41 22/40/42
f 72/119/43 88/145/33 22/40/42 10/19/44
f 71/118/45 85/142/29 88/145/33 72/119/43
f 70/117/37 82/139/26 85/142/29 71/118/45
f 91/148/46 92/149/47 95/152/48 94/151/49
f 92/149/47 93/150/50 96/153/51 95/152/48
f 94/151/49 95/152/48 98/155/52 97/154/53
f 95/152/48 96/153/51 99/156/54 98/155/52
f 10/18/44 22/41/42 91/148/46 67/114/55
f 22/41/42 23/43/41 92/149/47 91/148/46
f 23/43/41 24/45/40 93/150/50 92/149/47
f 24/45/40 7/12/19 40/73/18 93/150/50
f 93/150/50 40/73/18 41/74/17 96/153/51
f 96/153/51 41/74/17 42/76/16 99/156/54
f 99/156/54 42/76/16 5/8/15 58/102/56
f 98/155/52 99/156/54 58/102/56 59/104/57
f 97/154/53 98/155/52 59/104/57 60/106/58
f 69/116/59 97/154/53 60/106/58 12/23/60
f 68/115/61 94/151/49 97/154/53 69/116/59
f 67/114/55 91/148/46 94/151/49 68/115/61
f 100/157/62 101/158/63 104/161/64 103/160/65
f 101/158/63 102/159/66 105/162/67 104/161/64
f 103/160/65 104/161/64 107/164/68 106/163/69
f 104/161/64 105/162/67 108/165/70 107/164/68
f 6/10/71 18/32/72 100/157/62 13/24/73
f 18/32/72 17/31/74 101/158/63 100/157/62
f 17/31/74 16/30/75 102/159/66 101/158/63
f 16/30/75 2/3/76 48/83/77 102/159/66
f 102/159/66 48/83/77 47/82/78 105/162/67
f 105/162/67 47/82/78 46/81/79 108/165/70
f 108/165/70 46/81/79 4/6/80 39/71/81
f 107/164/68 108/165/70 39/71/81 38/69/82
f 106/163/69 107/164/68 38/69/82 37/67/83
f 15/28/84 106/163/69 37/67/83 8/13/85
f 14/26/86 103/160/65 106/163/69 15/28/84
f 13/24/73 100/157/62 103/160/65 14/26/86
f 109/166/87 110/167/88 113/170/89 112/169/90
f 110/167/88 111/168/91 114/171/92 113/170/89
f 112/169/90 113/170/89 116/173/93 115/172/94
f 113/170/89 114/171/92 117/174/95 116/173/93
f 9/17/96 51/88/97 109/166/87 64/111/98
f 51/88/97 50/86/99 110/167/88 109/166/87
f 50/86/99 49/84/100 111/168/91 110/167/88
f 49/84/100 1/1/10 34/63/12 111/168/91
f 111/168/91 34/63/12 35/64/25 114/171/92
f 114/171/92 35/64/25 36/66/23 117/174/95
f 117/174/95 36/66/23 3/5/24 55/97/39
f 116/173/93 117/174/95 55/97/39 56/99/38
f 115/172/94 116/173/93 56/99/38 57/101/36
f 66/113/101 115/172/94 57/101/36 11/20/35
f 65/112/102 112/169/90 115/172/94 66/113/101
f 64/111/98 109/166/87 112/169/90 65/112/102
f 118/175/103 119/176/104 122/179/105 121/178/106
f 119/176/104 120/177/107 123/180/108 122/179/105
f 121/178/106 122/179/105 125/182/109 124/181/110
f 122/179/105 123/180/108 126/183/111 125/182/109
f 12/22/60 60/107/58 118/175/103 61/108/112
f 60/107/58 59/105/57 119/176/104 118/175/103
f 59/105/57 58/103/56 120/177/107 119/176/104
f 58/103/56 5/9/15 43/77/14 120/177/107
f 120/177/107 43/77/14 44/78/13 123/180/108
f 123/180/108 44/78/13 45/80/11 126/183/111
f 126/183/111 45/80/11 1/2/10 49/85/100
f 125/182/109 126/183/111 49/85/100 50/87/99
f 124/181/110 125/182/109 50/87/99 51/89/97
f 63/110/113 124/181/110 51/89/97 9/16/96
f 62/109/114 121/178/106 124/181/110 63/110/113
f 61/108/112 118/175/103 121/178/106 62/109/114
f 127/184/115 128/186/116 131/190/117 130/188/118
f 128/186/116 129/187/119 132/191/120 131/190/117
f 130/188/118 131/190/117 134/194/121 133/192/122
f 131/190/117 132/191/120 135/195/123 134/194/121
f 6/10/71 30/58/124 127/185/115 18/32/72
f 30/56/124 29/54/125 128/186/116 127/184/115
f 29/54/125 28/52/126 129/187/119 128/186/116
f 28/52/126 12/22/60 61/108/112 129/187/119
f 129/187/119 61/108/112 62/109/114 132/191/120
f 132/191/120 62/109/114 63/110/113 135/195/123
f 135/195/123 63/110/113 9/16/96 19/33/127
f 134/194/121 135/195/123 19/33/127 20/35/128
f 133/192/122 134/194/121 20/35/128 21/37/129
f 16/30/75 133/193/122 21/38/129 2/3/76
f 17/31/74 130/189/118 133/193/122 16/30/75
f 18/32/72 127/185/115 130/189/118 17/31/74
f 136/196/130 137/198/131 140/202/132 139/200/133
f 137/198/131 138/199/134 141/203/135 140/202/132
f 139/200/133 140/202/132 143/207/136 142/204/137
f 140/202/132 141/203/135 144/209/138 143/207/136
f 2/3/76 21/38/129 136/197/130 48/83/77
f 21/39/129 20/36/128 137/198/131 136/196/130
f 20/36/128 19/34/127 138/199/134 137/198/131
f 19/34/127 9/17/96 64/111/98 138/199/134
f 138/199/134 64/111/98 65/112/102 141/203/135
f 141/203/135 65/112/102 66/113/101 144/209/138
f 144/209/138 66/113/101 11/20/35 25/46/139
f 143/207/136 144/209/138 25/46/139 26/48/140
f 142/205/137 143/208/136 26/49/140 27/51/141
f 46/81/79 142/206/137 27/50/141 4/6/80
f 47/82/78 139/201/133 142/206/137 46/81/79
f 48/83/77 136/197/130 139/201/133 47/82/78
f 145/210/142 146/211/143 149/214/144 148/213/145
f 146/211/143 147/212/146 150/215/147 149/214/144
f 148/213/145 149/214/144 152/218/148 151/217/149
f 149/214/144 150/215/147 153/219/150 152/218/148
f 8/14/85 52/90/151 145/210/142 15/29/84
f 52/90/151 53/92/152 146/211/143 145/210/142
f 53/92/152 54/94/153 147/212/146 146/211/143
f 54/94/153 10/18/44 67/114/55 147/212/146
f 147/212/146 67/114/55 68/115/61 150/215/147
f 150/215/147 68/115/61 69/116/59 153/219/150
f 153/219/150 69/116/59 12/23/60 28/53/126
f 152/218/148 153/219/150 28/53/126 29/55/125
f 151/217/149 152/218/148 29/55/125 30/57/124
f 13/24/73 151/216/149 30/58/124 6/10/71
f 14/27/86 148/213/145 151/217/149 13/25/73
f 15/29/84 145/210/142 148/213/145 14/27/86
f 154/220/154 155/221/155 158/224/156 157/223/157
f 155/221/155 156/222/158 159/225/159 158/224/156
f 157/223/157 158/224/156 161/227/160 160/226/161
f 158/224/156 159/225/159 162/228/162 161/227/160
f 4/7/80 27/51/141 154/220/154 39/72/81
f 27/51/141 26/49/140 155/221/155 154/220/154
f 26/49/140 25/47/139 156/222/158 155/221/155
f 25/47/139 11/21/35 70/117/37 156/222/158
f 156/222/158 70/117/37 71/118/45 159/225/159
f 159/225/159 71/118/45 72/119/43 162/228/162
f 162/228/162 72/119/43 10/19/44 54/95/153
f 161/227/160 162/228/162 54/95/153 53/93/152
f 160/226/161 161/227/160 53/93/152 52/91/151
f 37/68/83 160/226/161 52/91/151 8/15/85
f 38/70/82 157/223/157 160/226/161 37/68/83
f 39/72/81 154/220/154 157/223/157 38/70/82
