# Blender 3.4.1
# www.blender.org
mtllib StoneFloorDeco_05.mtl
o Deco_05
v -0.241012 -0.000042 -0.380068
v -0.241012 0.096237 -0.380068
v -0.226406 0.138162 0.110933
v 0.267943 -0.000042 0.238847
v 0.263176 0.138162 0.078606
v 0.251053 -0.000042 -0.328907
v 0.121034 -0.000042 -0.390838
v 0.027701 0.138162 -0.349757
v -0.033399 0.126231 -0.386244
v 0.253634 0.138162 -0.242140
v -0.220959 -0.000042 0.294045
v -0.223082 0.138162 0.222663
v -0.042442 0.138162 0.291612
v 0.043768 -0.000042 0.395089
vn -0.1449 0.9862 -0.0799
vn 0.3754 0.4878 -0.7881
vn 0.4102 0.6966 0.5886
vn -0.9996 -0.0000 0.0297
vn 0.9996 -0.0000 -0.0297
vn -0.0000 1.0000 -0.0000
vn -0.0297 -0.0000 -0.9996
vn -0.0000 -1.0000 -0.0000
vn -0.3218 0.4306 0.8432
vt 0.707378 0.383865
vt 0.764021 0.382223
vt 0.381961 0.763388
vt 0.281381 0.771653
vt 0.707378 0.648258
vt 0.499914 0.383865
vt 0.911456 0.763388
vt 0.077303 0.771653
vt 0.002095 0.384863
vt 0.764020 0.000000
vt 0.645265 0.383865
vt 0.000000 0.000000
vt 0.830622 0.379523
vt 0.084679 0.392130
vt 0.762750 0.002456
vt 1.000000 0.000000
vt 0.409285 0.383865
vt 0.764021 0.104381
vt 0.381961 0.483033
vt 0.384168 0.177114
vt 0.265474 0.564453
vt 0.281381 0.610885
vt 0.417635 0.225050
vt 0.381961 0.000000
vt 0.963936 0.379523
vt 0.217993 0.392130
vt 0.987564 0.383865
vt 0.662147 0.763388
vt 0.381961 0.385952
vt 0.957895 0.763388
vt 0.030864 0.771653
vt 0.381961 0.005692
vt 0.000000 0.633483
vt 0.245765 0.009907
vt 0.707378 0.560900
vt 0.182367 0.392130
s 0
usemtl Material.016
f 9/22/1 2/4/1 3/8/1 8/21/1
f 9/23/2 8/20/2 10/24/2 6/15/2 7/18/2
f 13/34/3 14/36/3 4/9/3 5/12/3
f 11/27/4 12/30/4 3/7/4 2/5/4 1/1/4
f 6/16/5 10/25/5 5/13/5 4/10/5
f 13/33/6 5/14/6 10/26/6 8/21/6 3/8/6 12/31/6
f 1/2/7 2/6/7 9/23/7 7/18/7
f 14/35/8 11/28/8 1/3/8 7/19/8 6/17/8 4/11/8
f 11/29/9 14/36/9 13/34/9 12/32/9
