# Blender 3.4.1
# www.blender.org
mtllib Stone_01.mtl
o Cube.030
v -0.221637 -0.013381 0.221636
v -0.221637 0.010370 0.245389
v -0.245389 0.010370 0.221636
v -0.221637 1.561130 0.245389
v -0.221637 1.584882 0.221636
v -0.245389 1.561130 0.221636
v -0.221637 -0.013381 -0.221636
v -0.245389 0.010371 -0.221636
v -0.221637 0.010371 -0.245388
v -0.221637 1.584882 -0.221636
v -0.221637 1.561130 -0.245388
v -0.245389 1.561130 -0.221636
v 0.221636 -0.013381 0.221636
v 0.245388 0.010370 0.221636
v 0.221636 0.010370 0.245389
v 0.221636 1.584882 0.221636
v 0.221636 1.561130 0.245389
v 0.245388 1.561130 0.221636
v 0.221636 -0.013381 -0.221636
v 0.221636 0.010371 -0.245388
v 0.245388 0.010371 -0.221636
v 0.221636 1.584882 -0.221636
v 0.245388 1.561130 -0.221636
v 0.221636 1.561130 -0.245388
vn -0.0000 -0.0000 1.0000
vn 1.0000 -0.0000 -0.0000
vn -0.0000 1.0000 -0.0000
vn -1.0000 -0.0000 -0.0000
vn -0.0000 -0.0000 -1.0000
vn -0.5774 -0.5774 0.5773
vn -0.5774 0.5773 0.5773
vn -0.5774 -0.5773 -0.5774
vn -0.5774 0.5773 -0.5774
vn 0.5774 -0.5774 0.5773
vn 0.5774 0.5773 0.5773
vn 0.5773 -0.5774 -0.5774
vn 0.5774 0.5773 -0.5774
vn -0.7071 -0.7071 -0.0000
vn -0.7071 -0.0000 0.7071
vn -0.7071 0.7071 -0.0000
vn -0.7071 -0.0000 -0.7071
vn -0.0000 -0.7071 -0.7071
vn -0.0000 0.7071 -0.7071
vn 0.7071 -0.0000 -0.7071
vn 0.7071 -0.7071 -0.0000
vn 0.7071 0.7071 -0.0000
vn 0.7071 -0.0000 0.7071
vn -0.0000 -0.7071 0.7071
vn -0.0000 0.7071 0.7071
vn -0.0000 -1.0000 -0.0000
vt 0.495152 0.000000
vt 0.761146 0.000000
vt 0.748867 0.000000
vt 0.507431 0.012279
vt 0.761146 0.012279
vt 0.495152 0.012279
vt 0.507431 0.813970
vt 0.761146 0.813970
vt 0.686835 0.758564
vt 0.495152 0.826249
vt 0.761146 0.826249
vt 0.495152 0.813970
vt 0.265995 0.000000
vt 0.748867 0.162039
vt 0.761146 0.170721
vt 0.265995 0.012279
vt 0.253716 0.012279
vt 0.748867 0.179404
vt 0.265995 0.826249
vt 0.524796 0.758564
vt 0.748867 0.746285
vt 0.253715 0.813970
vt 0.507431 0.758564
vt 0.516114 0.746285
vt 0.265995 0.813970
vt 0.012279 0.000000
vt 0.990303 0.000000
vt 0.519710 0.000000
vt 0.012279 0.012279
vt 0.000000 0.012279
vt 0.990303 0.012279
vt 0.686835 0.987721
vt 0.012279 0.826249
vt 0.990303 0.826249
vt 0.000000 0.813970
vt 0.990303 0.813970
vt 0.012279 0.813970
vt 0.241436 0.000000
vt 0.519710 0.162039
vt 0.519710 0.179404
vt 0.253715 0.012279
vt 0.507431 0.170721
vt 0.241436 0.012279
vt 0.524796 0.987721
vt 0.241436 0.826249
vt 0.516114 1.000000
vt 0.241436 0.813970
vt 0.519710 0.746285
vt 0.507431 0.987721
vt 0.253715 0.813970
s 1
usemtl Material.009
f 15/31/1 17/36/1 4/8/1 2/5/1
f 21/43/2 23/47/2 18/37/2 14/29/2
f 22/44/3 10/20/3 5/9/3 16/32/3
f 3/6/4 6/12/4 12/25/4 8/16/4
f 9/18/5 11/21/5 24/48/5 20/40/5
f 1/1/6 2/4/6 3/6/6
f 4/7/7 5/10/7 6/12/7
f 7/14/8 8/15/8 9/18/8
f 10/20/9 11/23/9 12/24/9
f 13/26/10 14/29/10 15/30/10
f 16/33/11 17/35/11 18/37/11
f 19/39/12 20/40/12 21/42/12
f 22/44/13 23/46/13 24/49/13
f 7/13/14 1/1/14 3/6/14 8/16/14
f 2/4/15 4/7/15 6/12/15 3/6/15
f 5/10/16 10/19/16 12/25/16 6/12/16
f 11/22/17 9/17/17 8/16/17 12/25/17
f 19/39/18 7/14/18 9/18/18 20/40/18
f 10/20/19 22/44/19 24/49/19 11/23/19
f 23/47/20 21/43/20 20/41/20 24/50/20
f 13/26/21 19/38/21 21/43/21 14/29/21
f 22/45/22 16/33/22 18/37/22 23/47/22
f 17/35/23 15/30/23 14/29/23 18/37/23
f 1/2/24 13/27/24 15/31/24 2/5/24
f 16/34/25 5/11/25 4/8/25 17/36/25
f 7/14/26 19/39/26 13/28/26 1/3/26
