# Blender 3.4.1
# www.blender.org
mtllib StoneFloorDeco_02.mtl
o Deco_02
v 0.144502 0.138378 -0.151112
v 0.144502 0.000174 -0.151112
v 0.144502 0.000174 0.163562
v -0.170172 0.138378 -0.151112
v -0.170172 0.000174 -0.151112
v -0.170172 0.138378 0.163562
v -0.170172 0.000174 0.163562
v 0.144502 0.096453 0.163562
v -0.041817 0.138378 0.163562
v 0.144502 0.138378 -0.005645
vn 0.2134 0.9483 0.2350
vn -1.0000 -0.0000 -0.0000
vn -0.0000 -1.0000 -0.0000
vn -0.0000 -0.0000 -1.0000
vn -0.0000 1.0000 -0.0000
vn -0.0000 -0.0000 1.0000
vn 1.0000 -0.0000 -0.0000
vt 0.720661 0.497820
vt 0.501346 0.502180
vt 0.000000 1.000000
vt 0.999841 0.000000
vt 0.939302 0.497820
vt 0.218640 1.000000
vt 0.999841 0.497820
vt 0.502021 0.497820
vt 0.218640 0.502180
vt 0.218640 0.502180
vt 0.720661 0.995640
vt 0.006443 0.502180
vt 0.437281 0.502180
vt 0.502021 0.000000
vt 0.939302 0.995640
vt 0.218640 1.000000
vt 0.000000 0.007941
vt 0.720661 0.995640
vt 0.437281 1.000000
vt 0.502021 0.497820
vt 0.502021 0.995640
vt 0.502021 0.000000
vt 0.654336 0.497820
vt 0.066326 0.502180
vt 0.201870 0.007941
vt 0.720661 0.792580
vt 0.498367 0.273705
vt 0.000000 0.769869
s 0
usemtl Material.013
f 9/25/1 8/22/1 10/27/1
f 7/19/2 6/16/2 4/10/2 5/13/2
f 5/14/3 2/4/3 3/7/3 7/20/3
f 5/15/4 4/11/4 1/1/4 2/5/4
f 1/2/5 4/12/5 6/17/5 9/25/5 10/27/5
f 3/8/6 8/23/6 9/26/6 6/18/6 7/21/6
f 2/6/7 1/3/7 10/28/7 8/24/7 3/9/7
